<?xml version="1.0" encoding="UTF-8" standalone="no"?>
<!DOCTYPE svg PUBLIC "-//W3C//DTD SVG 1.1//EN"
 "http://www.w3.org/Graphics/SVG/1.1/DTD/svg11.dtd">
<!-- Generated by graphviz version 11.0.0 (20240428.1522)
 -->
<!-- Title: jcolonia.daw2024.rmd.drumfest.VistaListado Pages: 1 -->
<svg width="224pt" height="472pt"
 viewBox="0.00 0.00 224.00 472.00" xmlns="http://www.w3.org/2000/svg" xmlns:xlink="http://www.w3.org/1999/xlink">
<g id="graph0" class="graph" transform="scale(1 1) rotate(0) translate(4 468)">
<title>jcolonia.daw2024.rmd.drumfest.VistaListado</title>
<!-- Node1 -->
<g id="Node000001" class="node">
<title>Node1</title>
<g id="a_Node000001"><a xlink:title="Vista del listado de un conjunto de elementos en forma de («array») de cadenas de texto.">
<polygon fill="#999999" stroke="none" points="216,-164 0,-164 0,0 216,0 216,-164"/>
<text text-anchor="start" x="12.38" y="-150.5" font-family="Helvetica,sans-Serif" font-size="10.00">jcolonia.daw2024.rmd.drumfest.VistaListado</text>
<text text-anchor="start" x="5.5" y="-134.5" font-family="Helvetica,sans-Serif" font-size="10.00">&#45;</text>
<text text-anchor="start" x="14" y="-134.5" font-family="Helvetica,sans-Serif" font-size="10.00">String nombre</text>
<text text-anchor="start" x="5.5" y="-118.5" font-family="Helvetica,sans-Serif" font-size="10.00">&#45;</text>
<text text-anchor="start" x="14" y="-118.5" font-family="Helvetica,sans-Serif" font-size="10.00">static final String CYAN</text>
<text text-anchor="start" x="5.5" y="-102.5" font-family="Helvetica,sans-Serif" font-size="10.00">&#45;</text>
<text text-anchor="start" x="14" y="-102.5" font-family="Helvetica,sans-Serif" font-size="10.00">static final String RESET</text>
<text text-anchor="start" x="5.5" y="-86.5" font-family="Helvetica,sans-Serif" font-size="10.00">&#45;</text>
<text text-anchor="start" x="14" y="-86.5" font-family="Helvetica,sans-Serif" font-size="10.00">static final String[] CABECERA_LISTADO</text>
<text text-anchor="start" x="4" y="-70.5" font-family="Helvetica,sans-Serif" font-size="10.00">+</text>
<text text-anchor="start" x="14" y="-70.5" font-family="Helvetica,sans-Serif" font-size="10.00">VistaListado(String nombre, Scanner entrada)</text>
<text text-anchor="start" x="4" y="-54.5" font-family="Helvetica,sans-Serif" font-size="10.00">+</text>
<text text-anchor="start" x="14" y="-54.5" font-family="Helvetica,sans-Serif" font-size="10.00">void mostrarTítulo()</text>
<text text-anchor="start" x="4" y="-38.5" font-family="Helvetica,sans-Serif" font-size="10.00">+</text>
<text text-anchor="start" x="14" y="-38.5" font-family="Helvetica,sans-Serif" font-size="10.00">void mostrarCabecera()</text>
<text text-anchor="start" x="4" y="-22.5" font-family="Helvetica,sans-Serif" font-size="10.00">+</text>
<text text-anchor="start" x="14" y="-22.5" font-family="Helvetica,sans-Serif" font-size="10.00">void listar(List&lt; String &gt; elemento)</text>
<text text-anchor="start" x="4" y="-6.5" font-family="Helvetica,sans-Serif" font-size="10.00">+</text>
<text text-anchor="start" x="14" y="-6.5" font-family="Helvetica,sans-Serif" font-size="10.00">void acercaDe()</text>
<polygon fill="#666666" stroke="#666666" points="0,-146 0,-146 216,-146 216,-146 0,-146"/>
<polygon fill="#666666" stroke="#666666" points="0,-82 0,-82 12,-82 12,-82 0,-82"/>
<polygon fill="#666666" stroke="#666666" points="12,-82 12,-82 216,-82 216,-82 12,-82"/>
<polygon fill="none" stroke="#666666" points="0,0 0,-164 216,-164 216,0 0,0"/>
</a>
</g>
</g>
<!-- Node2 -->
<g id="Node000002" class="node">
<title>Node2</title>
<g id="a_Node000002"><a xlink:href="classjcolonia_1_1daw2024_1_1rmd_1_1drumfest_1_1_vista_general.html" target="_top" xlink:title="Vista general para la interacción con el usuario.">
<polygon fill="white" stroke="none" points="209.5,-364 6.5,-364 6.5,-200 209.5,-200 209.5,-364"/>
<text text-anchor="start" x="11.25" y="-350.5" font-family="Helvetica,sans-Serif" font-size="10.00">jcolonia.daw2024.rmd.drumfest.VistaGeneral</text>
<text text-anchor="start" x="14.5" y="-334.5" font-family="Helvetica,sans-Serif" font-size="10.00">&#45;</text>
<text text-anchor="start" x="25.5" y="-334.5" font-family="Helvetica,sans-Serif" font-size="10.00">String nombre</text>
<text text-anchor="start" x="14.5" y="-318.5" font-family="Helvetica,sans-Serif" font-size="10.00">&#45;</text>
<text text-anchor="start" x="25.5" y="-318.5" font-family="Helvetica,sans-Serif" font-size="10.00">static final String SI</text>
<text text-anchor="start" x="14.5" y="-302.5" font-family="Helvetica,sans-Serif" font-size="10.00">&#45;</text>
<text text-anchor="start" x="25.5" y="-302.5" font-family="Helvetica,sans-Serif" font-size="10.00">static final String NO</text>
<text text-anchor="start" x="13" y="-286.5" font-family="Helvetica,sans-Serif" font-size="10.00">+</text>
<text text-anchor="start" x="25.5" y="-286.5" font-family="Helvetica,sans-Serif" font-size="10.00">VistaGeneral(String nombre, Scanner in)</text>
<text text-anchor="start" x="13" y="-270.5" font-family="Helvetica,sans-Serif" font-size="10.00">+</text>
<text text-anchor="start" x="25.5" y="-270.5" font-family="Helvetica,sans-Serif" font-size="10.00">void mostrarTítulo()</text>
<text text-anchor="start" x="13" y="-254.5" font-family="Helvetica,sans-Serif" font-size="10.00">+</text>
<text text-anchor="start" x="25.5" y="-254.5" font-family="Helvetica,sans-Serif" font-size="10.00">Scanner getScEntrada()</text>
<text text-anchor="start" x="13" y="-238.5" font-family="Helvetica,sans-Serif" font-size="10.00">+</text>
<text text-anchor="start" x="25.5" y="-238.5" font-family="Helvetica,sans-Serif" font-size="10.00">boolean pedirConfirmación()</text>
<text text-anchor="start" x="13" y="-222.5" font-family="Helvetica,sans-Serif" font-size="10.00">+</text>
<text text-anchor="start" x="25.5" y="-222.5" font-family="Helvetica,sans-Serif" font-size="10.00">String leerTexto(String pregunta)</text>
<text text-anchor="start" x="13" y="-206.5" font-family="Helvetica,sans-Serif" font-size="10.00">+</text>
<text text-anchor="start" x="25.5" y="-206.5" font-family="Helvetica,sans-Serif" font-size="10.00">int leerNúmero(String pregunta)</text>
<polygon fill="#666666" stroke="#666666" points="6.5,-346 6.5,-346 209.5,-346 209.5,-346 6.5,-346"/>
<polygon fill="#666666" stroke="#666666" points="6.5,-298 6.5,-298 23.5,-298 23.5,-298 6.5,-298"/>
<polygon fill="#666666" stroke="#666666" points="23.5,-298 23.5,-298 209.5,-298 209.5,-298 23.5,-298"/>
<polygon fill="none" stroke="#666666" points="6.5,-200 6.5,-364 209.5,-364 209.5,-200 6.5,-200"/>
</a>
</g>
</g>
<!-- Node2&#45;&gt;Node1 -->
<g id="edge1_Node000001_Node000002" class="edge">
<title>Node2&#45;&gt;Node1</title>
<g id="a_edge1_Node000001_Node000002"><a xlink:title=" ">
<path fill="none" stroke="#63b8ff" d="M108,-188.87C108,-180.52 108,-172.12 108,-163.88"/>
<polygon fill="none" stroke="#63b8ff" points="104.5,-188.67 108,-198.67 111.5,-188.67 104.5,-188.67"/>
</a>
</g>
</g>
<!-- Node3 -->
<g id="Node000003" class="node">
<title>Node3</title>
<g id="a_Node000003"><a xlink:title=" ">
<polygon fill="white" stroke="none" points="131,-464 85,-464 85,-412 131,-412 131,-464"/>
<text text-anchor="start" x="90" y="-450.5" font-family="Helvetica,sans-Serif" font-size="10.00">Scanner</text>
<text text-anchor="start" x="106.5" y="-434.5" font-family="Helvetica,sans-Serif" font-size="10.00"> </text>
<text text-anchor="start" x="106.5" y="-418.5" font-family="Helvetica,sans-Serif" font-size="10.00"> </text>
<polygon fill="#bfbfbf" stroke="#bfbfbf" points="85,-446 85,-446 131,-446 131,-446 85,-446"/>
<polygon fill="#bfbfbf" stroke="#bfbfbf" points="85,-430 85,-430 131,-430 131,-430 85,-430"/>
<polygon fill="none" stroke="#bfbfbf" points="85,-412 85,-464 131,-464 131,-412 85,-412"/>
</a>
</g>
</g>
<!-- Node3&#45;&gt;Node2 -->
<g id="edge2_Node000002_Node000003" class="edge">
<title>Node3&#45;&gt;Node2</title>
<g id="a_edge2_Node000002_Node000003"><a xlink:title=" ">
<path fill="none" stroke="#63b8ff" d="M108,-412.26C108,-402.14 108,-389.75 108,-376.68"/>
<polygon fill="none" stroke="#63b8ff" points="108,-376.9 104,-370.9 108,-364.9 112,-370.9 108,-376.9"/>
</a>
</g>
<text text-anchor="middle" x="133.12" y="-384.5" font-family="Helvetica,sans-Serif" font-size="10.00" fill="grey"> &#45;scEntrada</text>
</g>
</g>
</svg>
