<?xml version="1.0" encoding="UTF-8" standalone="no"?>
<!DOCTYPE svg PUBLIC "-//W3C//DTD SVG 1.1//EN"
 "http://www.w3.org/Graphics/SVG/1.1/DTD/svg11.dtd">
<!-- Generated by graphviz version 11.0.0 (20240428.1522)
 -->
<!-- Title: jcolonia.daw2024.rmd.drumfest.VistaGeneral Pages: 1 -->
<svg width="1086pt" height="388pt"
 viewBox="0.00 0.00 1086.00 388.00" xmlns="http://www.w3.org/2000/svg" xmlns:xlink="http://www.w3.org/1999/xlink">
<g id="graph0" class="graph" transform="scale(1 1) rotate(0) translate(4 384)">
<title>jcolonia.daw2024.rmd.drumfest.VistaGeneral</title>
<!-- Node1 -->
<g id="Node000001" class="node">
<title>Node1</title>
<g id="a_Node000001"><a xlink:title="Vista general para la interacción con el usuario.">
<polygon fill="#999999" stroke="none" points="622.5,-380 419.5,-380 419.5,-200 622.5,-200 622.5,-380"/>
<text text-anchor="start" x="424.25" y="-366.5" font-family="Helvetica,sans-Serif" font-size="10.00">jcolonia.daw2024.rmd.drumfest.VistaGeneral</text>
<text text-anchor="start" x="427.5" y="-350.5" font-family="Helvetica,sans-Serif" font-size="10.00">&#45;</text>
<text text-anchor="start" x="438.5" y="-350.5" font-family="Helvetica,sans-Serif" font-size="10.00">String nombre</text>
<text text-anchor="start" x="427.5" y="-334.5" font-family="Helvetica,sans-Serif" font-size="10.00">&#45;</text>
<text text-anchor="start" x="438.5" y="-334.5" font-family="Helvetica,sans-Serif" font-size="10.00">Scanner scEntrada</text>
<text text-anchor="start" x="427.5" y="-318.5" font-family="Helvetica,sans-Serif" font-size="10.00">&#45;</text>
<text text-anchor="start" x="438.5" y="-318.5" font-family="Helvetica,sans-Serif" font-size="10.00">static final String SI</text>
<text text-anchor="start" x="427.5" y="-302.5" font-family="Helvetica,sans-Serif" font-size="10.00">&#45;</text>
<text text-anchor="start" x="438.5" y="-302.5" font-family="Helvetica,sans-Serif" font-size="10.00">static final String NO</text>
<text text-anchor="start" x="426" y="-286.5" font-family="Helvetica,sans-Serif" font-size="10.00">+</text>
<text text-anchor="start" x="438.5" y="-286.5" font-family="Helvetica,sans-Serif" font-size="10.00">VistaGeneral(String nombre, Scanner in)</text>
<text text-anchor="start" x="426" y="-270.5" font-family="Helvetica,sans-Serif" font-size="10.00">+</text>
<text text-anchor="start" x="438.5" y="-270.5" font-family="Helvetica,sans-Serif" font-size="10.00">void mostrarTítulo()</text>
<text text-anchor="start" x="426" y="-254.5" font-family="Helvetica,sans-Serif" font-size="10.00">+</text>
<text text-anchor="start" x="438.5" y="-254.5" font-family="Helvetica,sans-Serif" font-size="10.00">Scanner getScEntrada()</text>
<text text-anchor="start" x="426" y="-238.5" font-family="Helvetica,sans-Serif" font-size="10.00">+</text>
<text text-anchor="start" x="438.5" y="-238.5" font-family="Helvetica,sans-Serif" font-size="10.00">boolean pedirConfirmación()</text>
<text text-anchor="start" x="426" y="-222.5" font-family="Helvetica,sans-Serif" font-size="10.00">+</text>
<text text-anchor="start" x="438.5" y="-222.5" font-family="Helvetica,sans-Serif" font-size="10.00">String leerTexto(String pregunta)</text>
<text text-anchor="start" x="426" y="-206.5" font-family="Helvetica,sans-Serif" font-size="10.00">+</text>
<text text-anchor="start" x="438.5" y="-206.5" font-family="Helvetica,sans-Serif" font-size="10.00">int leerNúmero(String pregunta)</text>
<polygon fill="#666666" stroke="#666666" points="419.5,-362 419.5,-362 622.5,-362 622.5,-362 419.5,-362"/>
<polygon fill="#666666" stroke="#666666" points="419.5,-298 419.5,-298 436.5,-298 436.5,-298 419.5,-298"/>
<polygon fill="#666666" stroke="#666666" points="436.5,-298 436.5,-298 622.5,-298 622.5,-298 436.5,-298"/>
<polygon fill="none" stroke="#666666" points="419.5,-200 419.5,-380 622.5,-380 622.5,-200 419.5,-200"/>
</a>
</g>
</g>
<!-- Node2 -->
<g id="Node000002" class="node">
<title>Node2</title>
<g id="a_Node000002"><a xlink:href="classjcolonia_1_1daw2024_1_1rmd_1_1drumfest_1_1_vista_alta_relevancia.html" target="_top" xlink:title="Vista para el registro de la relevancia de los artistas dentro del festival, empleando valores obteni...">
<polygon fill="white" stroke="none" points="260,-124 0,-124 0,-40 260,-40 260,-124"/>
<text text-anchor="start" x="18.25" y="-110.5" font-family="Helvetica,sans-Serif" font-size="10.00">jcolonia.daw2024.rmd.drumfest.VistaAltaRelevancia</text>
<text text-anchor="start" x="5.5" y="-94.5" font-family="Helvetica,sans-Serif" font-size="10.00">&#45;</text>
<text text-anchor="start" x="14" y="-94.5" font-family="Helvetica,sans-Serif" font-size="10.00">String nombre</text>
<text text-anchor="start" x="4" y="-78.5" font-family="Helvetica,sans-Serif" font-size="10.00">+</text>
<text text-anchor="start" x="14" y="-78.5" font-family="Helvetica,sans-Serif" font-size="10.00">VistaAltaRelevancia(String nombre, Scanner scEntrada)</text>
<text text-anchor="start" x="4" y="-62.5" font-family="Helvetica,sans-Serif" font-size="10.00">+</text>
<text text-anchor="start" x="14" y="-62.5" font-family="Helvetica,sans-Serif" font-size="10.00">void mostrarTítulo()</text>
<text text-anchor="start" x="4" y="-46.5" font-family="Helvetica,sans-Serif" font-size="10.00">+</text>
<text text-anchor="start" x="14" y="-46.5" font-family="Helvetica,sans-Serif" font-size="10.00">Relevancia introducirRelevancia()</text>
<polygon fill="#666666" stroke="#666666" points="0,-106 0,-106 260,-106 260,-106 0,-106"/>
<polygon fill="#666666" stroke="#666666" points="0,-90 0,-90 12,-90 12,-90 0,-90"/>
<polygon fill="#666666" stroke="#666666" points="12,-90 12,-90 260,-90 260,-90 12,-90"/>
<polygon fill="none" stroke="#666666" points="0,-40 0,-124 260,-124 260,-40 0,-40"/>
</a>
</g>
</g>
<!-- Node1&#45;&gt;Node2 -->
<g id="edge1_Node000001_Node000002" class="edge">
<title>Node1&#45;&gt;Node2</title>
<g id="a_edge1_Node000001_Node000002"><a xlink:title=" ">
<path fill="none" stroke="#63b8ff" d="M409.48,-235.68C365.39,-214.08 314.47,-188.49 269,-164 245.64,-151.42 220.47,-137.02 198.06,-123.89"/>
<polygon fill="none" stroke="#63b8ff" points="407.77,-238.74 418.29,-239.99 410.85,-232.45 407.77,-238.74"/>
</a>
</g>
</g>
<!-- Node3 -->
<g id="Node000003" class="node">
<title>Node3</title>
<g id="a_Node000003"><a xlink:href="classjcolonia_1_1daw2024_1_1rmd_1_1drumfest_1_1_vista_altas_bandas.html" target="_top" xlink:title="Vista para la introducción de bandas musicales.">
<polygon fill="white" stroke="none" points="518,-124 278,-124 278,-40 518,-40 518,-124"/>
<text text-anchor="start" x="290.38" y="-110.5" font-family="Helvetica,sans-Serif" font-size="10.00">jcolonia.daw2024.rmd.drumfest.VistaAltasBandas</text>
<text text-anchor="start" x="283.5" y="-94.5" font-family="Helvetica,sans-Serif" font-size="10.00">&#45;</text>
<text text-anchor="start" x="292" y="-94.5" font-family="Helvetica,sans-Serif" font-size="10.00">String nombre</text>
<text text-anchor="start" x="282" y="-78.5" font-family="Helvetica,sans-Serif" font-size="10.00">+</text>
<text text-anchor="start" x="292" y="-78.5" font-family="Helvetica,sans-Serif" font-size="10.00">VistaAltasBandas(String nombre, Scanner entrada)</text>
<text text-anchor="start" x="282" y="-62.5" font-family="Helvetica,sans-Serif" font-size="10.00">+</text>
<text text-anchor="start" x="292" y="-62.5" font-family="Helvetica,sans-Serif" font-size="10.00">Vector&lt; Banda &gt; introducirAltas()</text>
<text text-anchor="start" x="282" y="-46.5" font-family="Helvetica,sans-Serif" font-size="10.00">+</text>
<text text-anchor="start" x="292" y="-46.5" font-family="Helvetica,sans-Serif" font-size="10.00">void mostrarTítulo()</text>
<polygon fill="#666666" stroke="#666666" points="278,-106 278,-106 518,-106 518,-106 278,-106"/>
<polygon fill="#666666" stroke="#666666" points="278,-90 278,-90 290,-90 290,-90 278,-90"/>
<polygon fill="#666666" stroke="#666666" points="290,-90 290,-90 518,-90 518,-90 290,-90"/>
<polygon fill="none" stroke="#666666" points="278,-40 278,-124 518,-124 518,-40 278,-40"/>
</a>
</g>
</g>
<!-- Node1&#45;&gt;Node3 -->
<g id="edge2_Node000001_Node000003" class="edge">
<title>Node1&#45;&gt;Node3</title>
<g id="a_edge2_Node000001_Node000003"><a xlink:title=" ">
<path fill="none" stroke="#63b8ff" d="M462.16,-190.45C448.1,-166.92 433.87,-143.07 422.39,-123.85"/>
<polygon fill="none" stroke="#63b8ff" points="459.04,-192.05 467.17,-198.84 465.05,-188.46 459.04,-192.05"/>
</a>
</g>
</g>
<!-- Node4 -->
<g id="Node000004" class="node">
<title>Node4</title>
<g id="a_Node000004"><a xlink:href="classjcolonia_1_1daw2024_1_1rmd_1_1drumfest_1_1_vista_listado.html" target="_top" xlink:title="Vista del listado de un conjunto de elementos en forma de («array») de cadenas de texto.">
<polygon fill="white" stroke="none" points="752,-164 536,-164 536,0 752,0 752,-164"/>
<text text-anchor="start" x="548.38" y="-150.5" font-family="Helvetica,sans-Serif" font-size="10.00">jcolonia.daw2024.rmd.drumfest.VistaListado</text>
<text text-anchor="start" x="541.5" y="-134.5" font-family="Helvetica,sans-Serif" font-size="10.00">&#45;</text>
<text text-anchor="start" x="550" y="-134.5" font-family="Helvetica,sans-Serif" font-size="10.00">String nombre</text>
<text text-anchor="start" x="541.5" y="-118.5" font-family="Helvetica,sans-Serif" font-size="10.00">&#45;</text>
<text text-anchor="start" x="550" y="-118.5" font-family="Helvetica,sans-Serif" font-size="10.00">static final String CYAN</text>
<text text-anchor="start" x="541.5" y="-102.5" font-family="Helvetica,sans-Serif" font-size="10.00">&#45;</text>
<text text-anchor="start" x="550" y="-102.5" font-family="Helvetica,sans-Serif" font-size="10.00">static final String RESET</text>
<text text-anchor="start" x="541.5" y="-86.5" font-family="Helvetica,sans-Serif" font-size="10.00">&#45;</text>
<text text-anchor="start" x="550" y="-86.5" font-family="Helvetica,sans-Serif" font-size="10.00">static final String[] CABECERA_LISTADO</text>
<text text-anchor="start" x="540" y="-70.5" font-family="Helvetica,sans-Serif" font-size="10.00">+</text>
<text text-anchor="start" x="550" y="-70.5" font-family="Helvetica,sans-Serif" font-size="10.00">VistaListado(String nombre, Scanner entrada)</text>
<text text-anchor="start" x="540" y="-54.5" font-family="Helvetica,sans-Serif" font-size="10.00">+</text>
<text text-anchor="start" x="550" y="-54.5" font-family="Helvetica,sans-Serif" font-size="10.00">void mostrarTítulo()</text>
<text text-anchor="start" x="540" y="-38.5" font-family="Helvetica,sans-Serif" font-size="10.00">+</text>
<text text-anchor="start" x="550" y="-38.5" font-family="Helvetica,sans-Serif" font-size="10.00">void mostrarCabecera()</text>
<text text-anchor="start" x="540" y="-22.5" font-family="Helvetica,sans-Serif" font-size="10.00">+</text>
<text text-anchor="start" x="550" y="-22.5" font-family="Helvetica,sans-Serif" font-size="10.00">void listar(List&lt; String &gt; elemento)</text>
<text text-anchor="start" x="540" y="-6.5" font-family="Helvetica,sans-Serif" font-size="10.00">+</text>
<text text-anchor="start" x="550" y="-6.5" font-family="Helvetica,sans-Serif" font-size="10.00">void acercaDe()</text>
<polygon fill="#666666" stroke="#666666" points="536,-146 536,-146 752,-146 752,-146 536,-146"/>
<polygon fill="#666666" stroke="#666666" points="536,-82 536,-82 548,-82 548,-82 536,-82"/>
<polygon fill="#666666" stroke="#666666" points="548,-82 548,-82 752,-82 752,-82 548,-82"/>
<polygon fill="none" stroke="#666666" points="536,0 536,-164 752,-164 752,0 536,0"/>
</a>
</g>
</g>
<!-- Node1&#45;&gt;Node4 -->
<g id="edge3_Node000001_Node000004" class="edge">
<title>Node1&#45;&gt;Node4</title>
<g id="a_edge3_Node000001_Node000004"><a xlink:title=" ">
<path fill="none" stroke="#63b8ff" d="M579.83,-190.47C585.17,-181.52 590.54,-172.53 595.77,-163.77"/>
<polygon fill="none" stroke="#63b8ff" points="576.95,-188.46 574.83,-198.84 582.96,-192.05 576.95,-188.46"/>
</a>
</g>
</g>
<!-- Node5 -->
<g id="Node000005" class="node">
<title>Node5</title>
<g id="a_Node000005"><a xlink:href="classjcolonia_1_1daw2024_1_1rmd_1_1drumfest_1_1_vista_men_xC3_xBA.html" target="_top" xlink:title="Vista del menú para la interacción con el usuario.">
<polygon fill="white" stroke="none" points="1078,-148 770,-148 770,-16 1078,-16 1078,-148"/>
<text text-anchor="start" x="832.12" y="-134.5" font-family="Helvetica,sans-Serif" font-size="10.00">jcolonia.daw2024.rmd.drumfest.VistaMenú</text>
<text text-anchor="start" x="775.5" y="-118.5" font-family="Helvetica,sans-Serif" font-size="10.00">&#45;</text>
<text text-anchor="start" x="784" y="-118.5" font-family="Helvetica,sans-Serif" font-size="10.00">String[] listaOpciones</text>
<text text-anchor="start" x="775.5" y="-102.5" font-family="Helvetica,sans-Serif" font-size="10.00">&#45;</text>
<text text-anchor="start" x="784" y="-102.5" font-family="Helvetica,sans-Serif" font-size="10.00">int opción</text>
<text text-anchor="start" x="775.5" y="-86.5" font-family="Helvetica,sans-Serif" font-size="10.00">&#45;</text>
<text text-anchor="start" x="784" y="-86.5" font-family="Helvetica,sans-Serif" font-size="10.00">String nombre</text>
<text text-anchor="start" x="774" y="-70.5" font-family="Helvetica,sans-Serif" font-size="10.00">+</text>
<text text-anchor="start" x="784" y="-70.5" font-family="Helvetica,sans-Serif" font-size="10.00">VistaMenú(String nombre, String[] listaOpciones, Scanner entrada)</text>
<text text-anchor="start" x="774" y="-54.5" font-family="Helvetica,sans-Serif" font-size="10.00">+</text>
<text text-anchor="start" x="784" y="-54.5" font-family="Helvetica,sans-Serif" font-size="10.00">void mostrarTítulo()</text>
<text text-anchor="start" x="774" y="-38.5" font-family="Helvetica,sans-Serif" font-size="10.00">+</text>
<text text-anchor="start" x="784" y="-38.5" font-family="Helvetica,sans-Serif" font-size="10.00">void mostrarMenú()</text>
<text text-anchor="start" x="774" y="-22.5" font-family="Helvetica,sans-Serif" font-size="10.00">+</text>
<text text-anchor="start" x="784" y="-22.5" font-family="Helvetica,sans-Serif" font-size="10.00">int pedirOpción()</text>
<polygon fill="#666666" stroke="#666666" points="770,-130 770,-130 1078,-130 1078,-130 770,-130"/>
<polygon fill="#666666" stroke="#666666" points="770,-82 770,-82 782,-82 782,-82 770,-82"/>
<polygon fill="#666666" stroke="#666666" points="782,-82 782,-82 1078,-82 1078,-82 782,-82"/>
<polygon fill="none" stroke="#666666" points="770,-16 770,-148 1078,-148 1078,-16 770,-16"/>
</a>
</g>
</g>
<!-- Node1&#45;&gt;Node5 -->
<g id="edge4_Node000001_Node000005" class="edge">
<title>Node1&#45;&gt;Node5</title>
<g id="a_edge4_Node000001_Node000005"><a xlink:title=" ">
<path fill="none" stroke="#63b8ff" d="M632.5,-232.01C683.49,-205.94 744.15,-174.93 796.9,-147.97"/>
<polygon fill="none" stroke="#63b8ff" points="631.09,-228.79 623.78,-236.46 634.28,-235.03 631.09,-228.79"/>
</a>
</g>
</g>
</g>
</svg>
