<?xml version="1.0" encoding="UTF-8" standalone="no"?>
<!DOCTYPE svg PUBLIC "-//W3C//DTD SVG 1.1//EN"
 "http://www.w3.org/Graphics/SVG/1.1/DTD/svg11.dtd">
<!-- Generated by graphviz version 11.0.0 (20240428.1522)
 -->
<!-- Title: jcolonia.daw2024.rmd.drumfest.ControlBandas Pages: 1 -->
<svg width="610pt" height="824pt"
 viewBox="0.00 0.00 609.80 824.00" xmlns="http://www.w3.org/2000/svg" xmlns:xlink="http://www.w3.org/1999/xlink">
<g id="graph0" class="graph" transform="scale(1 1) rotate(0) translate(4 820)">
<title>jcolonia.daw2024.rmd.drumfest.ControlBandas</title>
<!-- Node1 -->
<g id="Node000001" class="node">
<title>Node1</title>
<g id="a_Node000001"><a xlink:title="Control de introducción, listado, borrado, exportación e importación del conjunto «Festival» de banda...">
<polygon fill="#999999" stroke="none" points="263.8,-244 23.8,-244 23.8,0 263.8,0 263.8,-244"/>
<text text-anchor="start" x="43.3" y="-230.5" font-family="Helvetica,sans-Serif" font-size="10.00">jcolonia.daw2024.rmd.drumfest.ControlBandas</text>
<text text-anchor="start" x="27.8" y="-214.5" font-family="Helvetica,sans-Serif" font-size="10.00">+</text>
<text text-anchor="start" x="37.8" y="-214.5" font-family="Helvetica,sans-Serif" font-size="10.00">static final String[] OPCIONES_MENÚ_PRINCIPAL</text>
<text text-anchor="start" x="29.3" y="-198.5" font-family="Helvetica,sans-Serif" font-size="10.00">&#45;</text>
<text text-anchor="start" x="37.8" y="-198.5" font-family="Helvetica,sans-Serif" font-size="10.00">static final String NOMBRE_PREDETERMINADO</text>
<text text-anchor="start" x="29.3" y="-182.5" font-family="Helvetica,sans-Serif" font-size="10.00">&#45;</text>
<text text-anchor="start" x="37.8" y="-182.5" font-family="Helvetica,sans-Serif" font-size="10.00">static final String YELLOW</text>
<text text-anchor="start" x="29.3" y="-166.5" font-family="Helvetica,sans-Serif" font-size="10.00">&#45;</text>
<text text-anchor="start" x="37.8" y="-166.5" font-family="Helvetica,sans-Serif" font-size="10.00">static final String GREEN</text>
<text text-anchor="start" x="29.3" y="-150.5" font-family="Helvetica,sans-Serif" font-size="10.00">&#45;</text>
<text text-anchor="start" x="37.8" y="-150.5" font-family="Helvetica,sans-Serif" font-size="10.00">static final String RESET</text>
<text text-anchor="start" x="27.8" y="-134.5" font-family="Helvetica,sans-Serif" font-size="10.00">+</text>
<text text-anchor="start" x="37.8" y="-134.5" font-family="Helvetica,sans-Serif" font-size="10.00">ControlBandas(Scanner entrada)</text>
<text text-anchor="start" x="27.8" y="-118.5" font-family="Helvetica,sans-Serif" font-size="10.00">+</text>
<text text-anchor="start" x="37.8" y="-118.5" font-family="Helvetica,sans-Serif" font-size="10.00">void importarBandas()</text>
<text text-anchor="start" x="27.8" y="-102.5" font-family="Helvetica,sans-Serif" font-size="10.00">+</text>
<text text-anchor="start" x="37.8" y="-102.5" font-family="Helvetica,sans-Serif" font-size="10.00">void exportarBandas()</text>
<text text-anchor="start" x="27.8" y="-86.5" font-family="Helvetica,sans-Serif" font-size="10.00">+</text>
<text text-anchor="start" x="37.8" y="-86.5" font-family="Helvetica,sans-Serif" font-size="10.00">void listarBandas()</text>
<text text-anchor="start" x="27.8" y="-70.5" font-family="Helvetica,sans-Serif" font-size="10.00">+</text>
<text text-anchor="start" x="37.8" y="-70.5" font-family="Helvetica,sans-Serif" font-size="10.00">void introducirBandas()</text>
<text text-anchor="start" x="27.8" y="-54.5" font-family="Helvetica,sans-Serif" font-size="10.00">+</text>
<text text-anchor="start" x="37.8" y="-54.5" font-family="Helvetica,sans-Serif" font-size="10.00">void borrarBandas()</text>
<text text-anchor="start" x="27.8" y="-38.5" font-family="Helvetica,sans-Serif" font-size="10.00">+</text>
<text text-anchor="start" x="37.8" y="-38.5" font-family="Helvetica,sans-Serif" font-size="10.00">void informaciónAplicación()</text>
<text text-anchor="start" x="27.8" y="-22.5" font-family="Helvetica,sans-Serif" font-size="10.00">+</text>
<text text-anchor="start" x="37.8" y="-22.5" font-family="Helvetica,sans-Serif" font-size="10.00">void buclePrincipal()</text>
<text text-anchor="start" x="27.8" y="-6.5" font-family="Helvetica,sans-Serif" font-size="10.00">+</text>
<text text-anchor="start" x="37.8" y="-6.5" font-family="Helvetica,sans-Serif" font-size="10.00">static void main(String[] argumentos)</text>
<polygon fill="#666666" stroke="#666666" points="23.8,-226 23.8,-226 263.8,-226 263.8,-226 23.8,-226"/>
<polygon fill="#666666" stroke="#666666" points="23.8,-146 23.8,-146 35.8,-146 35.8,-146 23.8,-146"/>
<polygon fill="#666666" stroke="#666666" points="35.8,-146 35.8,-146 263.8,-146 263.8,-146 35.8,-146"/>
<polygon fill="none" stroke="#666666" points="23.8,0 23.8,-244 263.8,-244 263.8,0 23.8,0"/>
</a>
</g>
</g>
<!-- Node2 -->
<g id="Node000002" class="node">
<title>Node2</title>
<g id="a_Node000002"><a xlink:title=" ">
<polygon fill="white" stroke="none" points="60.8,-816 14.8,-816 14.8,-764 60.8,-764 60.8,-816"/>
<text text-anchor="start" x="19.8" y="-802.5" font-family="Helvetica,sans-Serif" font-size="10.00">Scanner</text>
<text text-anchor="start" x="36.3" y="-786.5" font-family="Helvetica,sans-Serif" font-size="10.00"> </text>
<text text-anchor="start" x="36.3" y="-770.5" font-family="Helvetica,sans-Serif" font-size="10.00"> </text>
<polygon fill="#bfbfbf" stroke="#bfbfbf" points="14.8,-798 14.8,-798 60.8,-798 60.8,-798 14.8,-798"/>
<polygon fill="#bfbfbf" stroke="#bfbfbf" points="14.8,-782 14.8,-782 60.8,-782 60.8,-782 14.8,-782"/>
<polygon fill="none" stroke="#bfbfbf" points="14.8,-764 14.8,-816 60.8,-816 60.8,-764 14.8,-764"/>
</a>
</g>
</g>
<!-- Node2&#45;&gt;Node1 -->
<g id="edge1_Node000001_Node000002" class="edge">
<title>Node2&#45;&gt;Node1</title>
<g id="a_edge1_Node000001_Node000002"><a xlink:title=" ">
<path fill="none" stroke="#63b8ff" d="M31.8,-764.18C15.08,-690.21 -27.44,-465.62 26.8,-292 30.71,-279.48 35.91,-267.07 41.94,-255"/>
<polygon fill="none" stroke="#63b8ff" points="41.97,-254.96 41.22,-247.79 47.55,-244.34 48.3,-251.51 41.97,-254.96"/>
</a>
</g>
<text text-anchor="middle" x="20.92" y="-524.5" font-family="Helvetica,sans-Serif" font-size="10.00" fill="grey"> &#45;entrada</text>
</g>
<!-- Node7 -->
<g id="Node000007" class="node">
<title>Node7</title>
<g id="a_Node000007"><a xlink:href="classjcolonia_1_1daw2024_1_1rmd_1_1drumfest_1_1_vista_general.html" target="_top" xlink:title="Vista general para la interacción con el usuario.">
<polygon fill="white" stroke="none" points="241.3,-716 38.3,-716 38.3,-552 241.3,-552 241.3,-716"/>
<text text-anchor="start" x="43.05" y="-702.5" font-family="Helvetica,sans-Serif" font-size="10.00">jcolonia.daw2024.rmd.drumfest.VistaGeneral</text>
<text text-anchor="start" x="46.3" y="-686.5" font-family="Helvetica,sans-Serif" font-size="10.00">&#45;</text>
<text text-anchor="start" x="57.3" y="-686.5" font-family="Helvetica,sans-Serif" font-size="10.00">String nombre</text>
<text text-anchor="start" x="46.3" y="-670.5" font-family="Helvetica,sans-Serif" font-size="10.00">&#45;</text>
<text text-anchor="start" x="57.3" y="-670.5" font-family="Helvetica,sans-Serif" font-size="10.00">static final String SI</text>
<text text-anchor="start" x="46.3" y="-654.5" font-family="Helvetica,sans-Serif" font-size="10.00">&#45;</text>
<text text-anchor="start" x="57.3" y="-654.5" font-family="Helvetica,sans-Serif" font-size="10.00">static final String NO</text>
<text text-anchor="start" x="44.8" y="-638.5" font-family="Helvetica,sans-Serif" font-size="10.00">+</text>
<text text-anchor="start" x="57.3" y="-638.5" font-family="Helvetica,sans-Serif" font-size="10.00">VistaGeneral(String nombre, Scanner in)</text>
<text text-anchor="start" x="44.8" y="-622.5" font-family="Helvetica,sans-Serif" font-size="10.00">+</text>
<text text-anchor="start" x="57.3" y="-622.5" font-family="Helvetica,sans-Serif" font-size="10.00">void mostrarTítulo()</text>
<text text-anchor="start" x="44.8" y="-606.5" font-family="Helvetica,sans-Serif" font-size="10.00">+</text>
<text text-anchor="start" x="57.3" y="-606.5" font-family="Helvetica,sans-Serif" font-size="10.00">Scanner getScEntrada()</text>
<text text-anchor="start" x="44.8" y="-590.5" font-family="Helvetica,sans-Serif" font-size="10.00">+</text>
<text text-anchor="start" x="57.3" y="-590.5" font-family="Helvetica,sans-Serif" font-size="10.00">boolean pedirConfirmación()</text>
<text text-anchor="start" x="44.8" y="-574.5" font-family="Helvetica,sans-Serif" font-size="10.00">+</text>
<text text-anchor="start" x="57.3" y="-574.5" font-family="Helvetica,sans-Serif" font-size="10.00">String leerTexto(String pregunta)</text>
<text text-anchor="start" x="44.8" y="-558.5" font-family="Helvetica,sans-Serif" font-size="10.00">+</text>
<text text-anchor="start" x="57.3" y="-558.5" font-family="Helvetica,sans-Serif" font-size="10.00">int leerNúmero(String pregunta)</text>
<polygon fill="#666666" stroke="#666666" points="38.3,-698 38.3,-698 241.3,-698 241.3,-698 38.3,-698"/>
<polygon fill="#666666" stroke="#666666" points="38.3,-650 38.3,-650 55.3,-650 55.3,-650 38.3,-650"/>
<polygon fill="#666666" stroke="#666666" points="55.3,-650 55.3,-650 241.3,-650 241.3,-650 55.3,-650"/>
<polygon fill="none" stroke="#666666" points="38.3,-552 38.3,-716 241.3,-716 241.3,-552 38.3,-552"/>
</a>
</g>
</g>
<!-- Node2&#45;&gt;Node7 -->
<g id="edge7_Node000007_Node000002" class="edge">
<title>Node2&#45;&gt;Node7</title>
<g id="a_edge7_Node000007_Node000002"><a xlink:title=" ">
<path fill="none" stroke="#63b8ff" d="M54.18,-764.26C61.23,-753.62 69.94,-740.46 79.09,-726.65"/>
<polygon fill="none" stroke="#63b8ff" points="79.02,-726.75 79,-719.54 85.65,-716.75 85.67,-723.96 79.02,-726.75"/>
</a>
</g>
<text text-anchor="middle" x="98.92" y="-736.5" font-family="Helvetica,sans-Serif" font-size="10.00" fill="grey"> &#45;scEntrada</text>
</g>
<!-- Node3 -->
<g id="Node000003" class="node">
<title>Node3</title>
<g id="a_Node000003"><a xlink:href="classjcolonia_1_1daw2024_1_1rmd_1_1drumfest_1_1_festival.html" target="_top" xlink:title="Conjunto en forma de («array») de un número determinado de elementos «Banda».">
<polygon fill="white" stroke="none" points="537.3,-504 270.3,-504 270.3,-292 537.3,-292 537.3,-504"/>
<text text-anchor="start" x="318.67" y="-490.5" font-family="Helvetica,sans-Serif" font-size="10.00">jcolonia.daw2024.rmd.drumfest.Festival</text>
<text text-anchor="start" x="402.3" y="-474.5" font-family="Helvetica,sans-Serif" font-size="10.00"> </text>
<text text-anchor="start" x="274.3" y="-458.5" font-family="Helvetica,sans-Serif" font-size="10.00">+</text>
<text text-anchor="start" x="284.3" y="-458.5" font-family="Helvetica,sans-Serif" font-size="10.00">Festival()</text>
<text text-anchor="start" x="274.3" y="-442.5" font-family="Helvetica,sans-Serif" font-size="10.00">+</text>
<text text-anchor="start" x="284.3" y="-442.5" font-family="Helvetica,sans-Serif" font-size="10.00">void añadir(Banda elemento)</text>
<text text-anchor="start" x="274.3" y="-426.5" font-family="Helvetica,sans-Serif" font-size="10.00">+</text>
<text text-anchor="start" x="284.3" y="-426.5" font-family="Helvetica,sans-Serif" font-size="10.00">void añadirTodos(Vector&lt; Banda &gt; elementos)</text>
<text text-anchor="start" x="274.3" y="-410.5" font-family="Helvetica,sans-Serif" font-size="10.00">+</text>
<text text-anchor="start" x="284.3" y="-410.5" font-family="Helvetica,sans-Serif" font-size="10.00">Banda consultarPosición(int posición)</text>
<text text-anchor="start" x="274.3" y="-394.5" font-family="Helvetica,sans-Serif" font-size="10.00">+</text>
<text text-anchor="start" x="284.3" y="-394.5" font-family="Helvetica,sans-Serif" font-size="10.00">boolean consultarElementosVacíos()</text>
<text text-anchor="start" x="274.3" y="-378.5" font-family="Helvetica,sans-Serif" font-size="10.00">+</text>
<text text-anchor="start" x="284.3" y="-378.5" font-family="Helvetica,sans-Serif" font-size="10.00">int númeroElementos()</text>
<text text-anchor="start" x="274.3" y="-362.5" font-family="Helvetica,sans-Serif" font-size="10.00">+</text>
<text text-anchor="start" x="284.3" y="-362.5" font-family="Helvetica,sans-Serif" font-size="10.00">void eliminarTodos()</text>
<text text-anchor="start" x="274.3" y="-346.5" font-family="Helvetica,sans-Serif" font-size="10.00">+</text>
<text text-anchor="start" x="284.3" y="-346.5" font-family="Helvetica,sans-Serif" font-size="10.00">Banda eliminarElemento(int posición)</text>
<text text-anchor="start" x="274.3" y="-330.5" font-family="Helvetica,sans-Serif" font-size="10.00">+</text>
<text text-anchor="start" x="284.3" y="-330.5" font-family="Helvetica,sans-Serif" font-size="10.00">List&lt; String &gt; toTextoListado()</text>
<text text-anchor="start" x="274.3" y="-314.5" font-family="Helvetica,sans-Serif" font-size="10.00">+</text>
<text text-anchor="start" x="284.3" y="-314.5" font-family="Helvetica,sans-Serif" font-size="10.00">List&lt; String &gt; toCSVTextoListado()</text>
<text text-anchor="start" x="274.3" y="-298.5" font-family="Helvetica,sans-Serif" font-size="10.00">+</text>
<text text-anchor="start" x="284.3" y="-298.5" font-family="Helvetica,sans-Serif" font-size="10.00">static Festival ofFestival(List&lt; String &gt; líneasArchivoCSV)</text>
<polygon fill="#666666" stroke="#666666" points="270.3,-486 270.3,-486 537.3,-486 537.3,-486 270.3,-486"/>
<polygon fill="#666666" stroke="#666666" points="270.3,-470 270.3,-470 537.3,-470 537.3,-470 270.3,-470"/>
<polygon fill="none" stroke="#666666" points="270.3,-292 270.3,-504 537.3,-504 537.3,-292 270.3,-292"/>
</a>
</g>
</g>
<!-- Node3&#45;&gt;Node1 -->
<g id="edge2_Node000001_Node000003" class="edge">
<title>Node3&#45;&gt;Node1</title>
<g id="a_edge2_Node000001_Node000003"><a xlink:title=" ">
<path fill="none" stroke="#63b8ff" d="M304.39,-292.24C292.16,-279.35 279.54,-266.06 267.02,-252.85"/>
<polygon fill="none" stroke="#63b8ff" points="267.24,-253.09 260.21,-251.49 258.98,-244.39 266.01,-245.99 267.24,-253.09"/>
</a>
</g>
<text text-anchor="middle" x="319.67" y="-264.5" font-family="Helvetica,sans-Serif" font-size="10.00" fill="grey"> &#45;conjuntoBandas</text>
</g>
<!-- Node4 -->
<g id="Node000004" class="node">
<title>Node4</title>
<g id="a_Node000004"><a xlink:title=" ">
<polygon fill="white" stroke="none" points="514.3,-660 293.3,-660 293.3,-608 514.3,-608 514.3,-660"/>
<text text-anchor="start" x="298.05" y="-646.5" font-family="Helvetica,sans-Serif" font-size="10.00">Vector&lt; jcolonia.daw2024.rmd.drumfest.Banda &gt;</text>
<text text-anchor="start" x="402.3" y="-630.5" font-family="Helvetica,sans-Serif" font-size="10.00"> </text>
<text text-anchor="start" x="402.3" y="-614.5" font-family="Helvetica,sans-Serif" font-size="10.00"> </text>
<polygon fill="#bfbfbf" stroke="#bfbfbf" points="293.3,-642 293.3,-642 514.3,-642 514.3,-642 293.3,-642"/>
<polygon fill="#bfbfbf" stroke="#bfbfbf" points="293.3,-626 293.3,-626 514.3,-626 514.3,-626 293.3,-626"/>
<polygon fill="none" stroke="#bfbfbf" points="293.3,-608 293.3,-660 514.3,-660 514.3,-608 293.3,-608"/>
</a>
</g>
</g>
<!-- Node4&#45;&gt;Node3 -->
<g id="edge3_Node000003_Node000004" class="edge">
<title>Node4&#45;&gt;Node3</title>
<g id="a_edge3_Node000003_Node000004"><a xlink:title=" ">
<path fill="none" stroke="#63b8ff" d="M403.8,-608.4C403.8,-586.09 403.8,-551.47 403.8,-516.76"/>
<polygon fill="none" stroke="#63b8ff" points="403.8,-516.89 399.8,-510.89 403.8,-504.89 407.8,-510.89 403.8,-516.89"/>
</a>
</g>
<text text-anchor="middle" x="441.67" y="-524.5" font-family="Helvetica,sans-Serif" font-size="10.00" fill="grey"> &#45;conjuntoBandas</text>
</g>
<!-- Node5 -->
<g id="Node000005" class="node">
<title>Node5</title>
<g id="a_Node000005"><a xlink:title=" ">
<polygon fill="white" stroke="none" points="422.8,-816 384.8,-816 384.8,-764 422.8,-764 422.8,-816"/>
<text text-anchor="start" x="389.55" y="-802.5" font-family="Helvetica,sans-Serif" font-size="10.00">Vector</text>
<text text-anchor="start" x="402.3" y="-786.5" font-family="Helvetica,sans-Serif" font-size="10.00"> </text>
<text text-anchor="start" x="402.3" y="-770.5" font-family="Helvetica,sans-Serif" font-size="10.00"> </text>
<polygon fill="#bfbfbf" stroke="#bfbfbf" points="384.8,-798 384.8,-798 422.8,-798 422.8,-798 384.8,-798"/>
<polygon fill="#bfbfbf" stroke="#bfbfbf" points="384.8,-782 384.8,-782 422.8,-782 422.8,-782 384.8,-782"/>
<polygon fill="none" stroke="#bfbfbf" points="384.8,-764 384.8,-816 422.8,-816 422.8,-764 384.8,-764"/>
</a>
</g>
</g>
<!-- Node5&#45;&gt;Node4 -->
<g id="edge4_Node000004_Node000005" class="edge">
<title>Node5&#45;&gt;Node4</title>
<g id="a_edge4_Node000004_Node000005"><a xlink:title=" ">
<path fill="none" stroke="orange" d="M403.8,-753.11C403.8,-724.5 403.8,-685.19 403.8,-659.94"/>
<polygon fill="orange" stroke="orange" points="400.3,-752.74 403.8,-762.74 407.3,-752.74 400.3,-752.74"/>
</a>
</g>
<text text-anchor="middle" x="502.8" y="-736.5" font-family="Helvetica,sans-Serif" font-size="10.00" fill="grey"> &lt; jcolonia::daw2024::rmd::drumfest::Banda &gt;</text>
</g>
<!-- Node6 -->
<g id="Node000006" class="node">
<title>Node6</title>
<g id="a_Node000006"><a xlink:href="classjcolonia_1_1daw2024_1_1rmd_1_1drumfest_1_1_vista_listado.html" target="_top" xlink:title="Vista del listado de un conjunto de elementos en forma de («array») de cadenas de texto.">
<polygon fill="white" stroke="none" points="251.8,-480 35.8,-480 35.8,-316 251.8,-316 251.8,-480"/>
<text text-anchor="start" x="48.17" y="-466.5" font-family="Helvetica,sans-Serif" font-size="10.00">jcolonia.daw2024.rmd.drumfest.VistaListado</text>
<text text-anchor="start" x="41.3" y="-450.5" font-family="Helvetica,sans-Serif" font-size="10.00">&#45;</text>
<text text-anchor="start" x="49.8" y="-450.5" font-family="Helvetica,sans-Serif" font-size="10.00">String nombre</text>
<text text-anchor="start" x="41.3" y="-434.5" font-family="Helvetica,sans-Serif" font-size="10.00">&#45;</text>
<text text-anchor="start" x="49.8" y="-434.5" font-family="Helvetica,sans-Serif" font-size="10.00">static final String CYAN</text>
<text text-anchor="start" x="41.3" y="-418.5" font-family="Helvetica,sans-Serif" font-size="10.00">&#45;</text>
<text text-anchor="start" x="49.8" y="-418.5" font-family="Helvetica,sans-Serif" font-size="10.00">static final String RESET</text>
<text text-anchor="start" x="41.3" y="-402.5" font-family="Helvetica,sans-Serif" font-size="10.00">&#45;</text>
<text text-anchor="start" x="49.8" y="-402.5" font-family="Helvetica,sans-Serif" font-size="10.00">static final String[] CABECERA_LISTADO</text>
<text text-anchor="start" x="39.8" y="-386.5" font-family="Helvetica,sans-Serif" font-size="10.00">+</text>
<text text-anchor="start" x="49.8" y="-386.5" font-family="Helvetica,sans-Serif" font-size="10.00">VistaListado(String nombre, Scanner entrada)</text>
<text text-anchor="start" x="39.8" y="-370.5" font-family="Helvetica,sans-Serif" font-size="10.00">+</text>
<text text-anchor="start" x="49.8" y="-370.5" font-family="Helvetica,sans-Serif" font-size="10.00">void mostrarTítulo()</text>
<text text-anchor="start" x="39.8" y="-354.5" font-family="Helvetica,sans-Serif" font-size="10.00">+</text>
<text text-anchor="start" x="49.8" y="-354.5" font-family="Helvetica,sans-Serif" font-size="10.00">void mostrarCabecera()</text>
<text text-anchor="start" x="39.8" y="-338.5" font-family="Helvetica,sans-Serif" font-size="10.00">+</text>
<text text-anchor="start" x="49.8" y="-338.5" font-family="Helvetica,sans-Serif" font-size="10.00">void listar(List&lt; String &gt; elemento)</text>
<text text-anchor="start" x="39.8" y="-322.5" font-family="Helvetica,sans-Serif" font-size="10.00">+</text>
<text text-anchor="start" x="49.8" y="-322.5" font-family="Helvetica,sans-Serif" font-size="10.00">void acercaDe()</text>
<polygon fill="#666666" stroke="#666666" points="35.8,-462 35.8,-462 251.8,-462 251.8,-462 35.8,-462"/>
<polygon fill="#666666" stroke="#666666" points="35.8,-398 35.8,-398 47.8,-398 47.8,-398 35.8,-398"/>
<polygon fill="#666666" stroke="#666666" points="47.8,-398 47.8,-398 251.8,-398 251.8,-398 47.8,-398"/>
<polygon fill="none" stroke="#666666" points="35.8,-316 35.8,-480 251.8,-480 251.8,-316 35.8,-316"/>
</a>
</g>
</g>
<!-- Node6&#45;&gt;Node1 -->
<g id="edge5_Node000001_Node000006" class="edge">
<title>Node6&#45;&gt;Node1</title>
<g id="a_edge5_Node000001_Node000006"><a xlink:title=" ">
<path fill="none" stroke="#63b8ff" d="M143.8,-316.27C143.8,-297.54 143.8,-277.1 143.8,-256.76"/>
<polygon fill="none" stroke="#63b8ff" points="143.8,-256.68 139.8,-250.68 143.8,-244.68 147.8,-250.68 143.8,-256.68"/>
</a>
</g>
<text text-anchor="middle" x="172.3" y="-264.5" font-family="Helvetica,sans-Serif" font-size="10.00" fill="grey"> &#45;vistaListado</text>
</g>
<!-- Node7&#45;&gt;Node6 -->
<g id="edge6_Node000006_Node000007" class="edge">
<title>Node7&#45;&gt;Node6</title>
<g id="a_edge6_Node000006_Node000007"><a xlink:title=" ">
<path fill="none" stroke="#63b8ff" d="M141.37,-540.76C141.72,-520.64 142.08,-499.5 142.41,-479.86"/>
<polygon fill="none" stroke="#63b8ff" points="137.88,-540.57 141.2,-550.63 144.87,-540.69 137.88,-540.57"/>
</a>
</g>
</g>
</g>
</svg>
