<?xml version="1.0" encoding="UTF-8" standalone="no"?>
<!DOCTYPE svg PUBLIC "-//W3C//DTD SVG 1.1//EN"
 "http://www.w3.org/Graphics/SVG/1.1/DTD/svg11.dtd">
<!-- Generated by graphviz version 11.0.0 (20240428.1522)
 -->
<!-- Title: jcolonia.daw2024.rmd.drumfest.Festival Pages: 1 -->
<svg width="340pt" height="420pt"
 viewBox="0.00 0.00 339.50 420.00" xmlns="http://www.w3.org/2000/svg" xmlns:xlink="http://www.w3.org/1999/xlink">

<svg id="main" version="1.1" xmlns="http://www.w3.org/2000/svg" xmlns:xlink="http://www.w3.org/1999/xlink" xml:space="preserve" onload="init(evt)">
<style type="text/css"><![CDATA[
.node, .edge {opacity: 0.7;}
.node.selected, .edge.selected {opacity: 1;}
.edge:hover path { stroke: red; }
.edge:hover polygon { stroke: red; fill: red; }
]]></style>
<script type="application/ecmascript" xlink:href="svg.min.js"/>
<svg id="graph" class="graph">
<g id="graph0" class="graph" transform="scale(1 1) rotate(0) translate(4 416)">
<title>jcolonia.daw2024.rmd.drumfest.Festival</title>
<!-- Node1 -->
<g id="Node000001" class="node">
<title>Node1</title>
<g id="a_Node000001"><a xlink:title="Conjunto en forma de («array») de un número determinado de elementos «Banda».">
<polygon fill="#999999" stroke="none" points="267,-212 0,-212 0,0 267,0 267,-212"/>
<text text-anchor="start" x="48.38" y="-198.5" font-family="Helvetica,sans-Serif" font-size="10.00">jcolonia.daw2024.rmd.drumfest.Festival</text>
<text text-anchor="start" x="132" y="-182.5" font-family="Helvetica,sans-Serif" font-size="10.00"> </text>
<text text-anchor="start" x="4" y="-166.5" font-family="Helvetica,sans-Serif" font-size="10.00">+</text>
<text text-anchor="start" x="14" y="-166.5" font-family="Helvetica,sans-Serif" font-size="10.00">Festival()</text>
<text text-anchor="start" x="4" y="-150.5" font-family="Helvetica,sans-Serif" font-size="10.00">+</text>
<text text-anchor="start" x="14" y="-150.5" font-family="Helvetica,sans-Serif" font-size="10.00">void añadir(Banda elemento)</text>
<text text-anchor="start" x="4" y="-134.5" font-family="Helvetica,sans-Serif" font-size="10.00">+</text>
<text text-anchor="start" x="14" y="-134.5" font-family="Helvetica,sans-Serif" font-size="10.00">void añadirTodos(Vector&lt; Banda &gt; elementos)</text>
<text text-anchor="start" x="4" y="-118.5" font-family="Helvetica,sans-Serif" font-size="10.00">+</text>
<text text-anchor="start" x="14" y="-118.5" font-family="Helvetica,sans-Serif" font-size="10.00">Banda consultarPosición(int posición)</text>
<text text-anchor="start" x="4" y="-102.5" font-family="Helvetica,sans-Serif" font-size="10.00">+</text>
<text text-anchor="start" x="14" y="-102.5" font-family="Helvetica,sans-Serif" font-size="10.00">boolean consultarElementosVacíos()</text>
<text text-anchor="start" x="4" y="-86.5" font-family="Helvetica,sans-Serif" font-size="10.00">+</text>
<text text-anchor="start" x="14" y="-86.5" font-family="Helvetica,sans-Serif" font-size="10.00">int númeroElementos()</text>
<text text-anchor="start" x="4" y="-70.5" font-family="Helvetica,sans-Serif" font-size="10.00">+</text>
<text text-anchor="start" x="14" y="-70.5" font-family="Helvetica,sans-Serif" font-size="10.00">void eliminarTodos()</text>
<text text-anchor="start" x="4" y="-54.5" font-family="Helvetica,sans-Serif" font-size="10.00">+</text>
<text text-anchor="start" x="14" y="-54.5" font-family="Helvetica,sans-Serif" font-size="10.00">Banda eliminarElemento(int posición)</text>
<text text-anchor="start" x="4" y="-38.5" font-family="Helvetica,sans-Serif" font-size="10.00">+</text>
<text text-anchor="start" x="14" y="-38.5" font-family="Helvetica,sans-Serif" font-size="10.00">List&lt; String &gt; toTextoListado()</text>
<text text-anchor="start" x="4" y="-22.5" font-family="Helvetica,sans-Serif" font-size="10.00">+</text>
<text text-anchor="start" x="14" y="-22.5" font-family="Helvetica,sans-Serif" font-size="10.00">List&lt; String &gt; toCSVTextoListado()</text>
<text text-anchor="start" x="4" y="-6.5" font-family="Helvetica,sans-Serif" font-size="10.00">+</text>
<text text-anchor="start" x="14" y="-6.5" font-family="Helvetica,sans-Serif" font-size="10.00">static Festival ofFestival(List&lt; String &gt; líneasArchivoCSV)</text>
<polygon fill="#666666" stroke="#666666" points="0,-194 0,-194 267,-194 267,-194 0,-194"/>
<polygon fill="#666666" stroke="#666666" points="0,-178 0,-178 267,-178 267,-178 0,-178"/>
<polygon fill="none" stroke="#666666" points="0,0 0,-212 267,-212 267,0 0,0"/>
</a>
</g>
</g>
<!-- Node2 -->
<g id="Node000002" class="node">
<title>Node2</title>
<g id="a_Node000002"><a xlink:title=" ">
<polygon fill="white" stroke="none" points="244,-312 23,-312 23,-260 244,-260 244,-312"/>
<text text-anchor="start" x="27.75" y="-298.5" font-family="Helvetica,sans-Serif" font-size="10.00">Vector&lt; jcolonia.daw2024.rmd.drumfest.Banda &gt;</text>
<text text-anchor="start" x="132" y="-282.5" font-family="Helvetica,sans-Serif" font-size="10.00"> </text>
<text text-anchor="start" x="132" y="-266.5" font-family="Helvetica,sans-Serif" font-size="10.00"> </text>
<polygon fill="#bfbfbf" stroke="#bfbfbf" points="23,-294 23,-294 244,-294 244,-294 23,-294"/>
<polygon fill="#bfbfbf" stroke="#bfbfbf" points="23,-278 23,-278 244,-278 244,-278 23,-278"/>
<polygon fill="none" stroke="#bfbfbf" points="23,-260 23,-312 244,-312 244,-260 23,-260"/>
</a>
</g>
</g>
<!-- Node2&#45;&gt;Node1 -->
<g id="edge1_Node000001_Node000002" class="edge">
<title>Node2&#45;&gt;Node1</title>
<g id="a_edge1_Node000001_Node000002"><a xlink:title=" ">
<path fill="none" stroke="#63b8ff" d="M133.5,-260.25C133.5,-250.26 133.5,-237.96 133.5,-224.7"/>
<polygon fill="none" stroke="#63b8ff" points="133.5,-224.65 129.5,-218.65 133.5,-212.65 137.5,-218.65 133.5,-224.65"/>
</a>
</g>
<text text-anchor="middle" x="171.38" y="-232.5" font-family="Helvetica,sans-Serif" font-size="10.00" fill="grey"> &#45;conjuntoBandas</text>
</g>
<!-- Node3 -->
<g id="Node000003" class="node">
<title>Node3</title>
<g id="a_Node000003"><a xlink:title=" ">
<polygon fill="white" stroke="none" points="152.5,-412 114.5,-412 114.5,-360 152.5,-360 152.5,-412"/>
<text text-anchor="start" x="119.25" y="-398.5" font-family="Helvetica,sans-Serif" font-size="10.00">Vector</text>
<text text-anchor="start" x="132" y="-382.5" font-family="Helvetica,sans-Serif" font-size="10.00"> </text>
<text text-anchor="start" x="132" y="-366.5" font-family="Helvetica,sans-Serif" font-size="10.00"> </text>
<polygon fill="#bfbfbf" stroke="#bfbfbf" points="114.5,-394 114.5,-394 152.5,-394 152.5,-394 114.5,-394"/>
<polygon fill="#bfbfbf" stroke="#bfbfbf" points="114.5,-378 114.5,-378 152.5,-378 152.5,-378 114.5,-378"/>
<polygon fill="none" stroke="#bfbfbf" points="114.5,-360 114.5,-412 152.5,-412 152.5,-360 114.5,-360"/>
</a>
</g>
</g>
<!-- Node3&#45;&gt;Node2 -->
<g id="edge2_Node000002_Node000003" class="edge">
<title>Node3&#45;&gt;Node2</title>
<g id="a_edge2_Node000002_Node000003"><a xlink:title=" ">
<path fill="none" stroke="orange" d="M133.5,-348.74C133.5,-336.49 133.5,-323.1 133.5,-311.94"/>
<polygon fill="orange" stroke="orange" points="130,-348.5 133.5,-358.5 137,-348.5 130,-348.5"/>
</a>
</g>
<text text-anchor="middle" x="232.5" y="-332.5" font-family="Helvetica,sans-Serif" font-size="10.00" fill="grey"> &lt; jcolonia::daw2024::rmd::drumfest::Banda &gt;</text>
</g>
</g>
</svg>
</svg>

<style type='text/css'>
<![CDATA[
[data-mouse-over-selected='false'] { opacity: 0.7; }
[data-mouse-over-selected='true']  { opacity: 1.0; }
]]>
</style>
<script type="application/ecmascript"><![CDATA[
document.addEventListener('DOMContentLoaded', (event) => {
  highlightEdges();
  highlightAdjacentNodes();
});
]]></script>
</svg>
