<?xml version="1.0" encoding="UTF-8" standalone="no"?>
<!DOCTYPE svg PUBLIC "-//W3C//DTD SVG 1.1//EN"
 "http://www.w3.org/Graphics/SVG/1.1/DTD/svg11.dtd">
<!-- Generated by graphviz version 11.0.0 (20240428.1522)
 -->
<!-- Title: jcolonia.daw2024.rmd.drumfest.Banda Pages: 1 -->
<svg width="201pt" height="480pt"
 viewBox="0.00 0.00 201.00 480.00" xmlns="http://www.w3.org/2000/svg" xmlns:xlink="http://www.w3.org/1999/xlink">
<g id="graph0" class="graph" transform="scale(1 1) rotate(0) translate(4 476)">
<title>jcolonia.daw2024.rmd.drumfest.Banda</title>
<!-- Node1 -->
<g id="Node000001" class="node">
<title>Node1</title>
<g id="a_Node000001"><a xlink:title="Agrupación de características principales de las bandas musicales.">
<polygon fill="#999999" stroke="none" points="190,-324 3,-324 3,0 190,0 190,-324"/>
<text text-anchor="start" x="14" y="-310.5" font-family="Helvetica,sans-Serif" font-size="10.00">jcolonia.daw2024.rmd.drumfest.Banda</text>
<text text-anchor="start" x="8.5" y="-294.5" font-family="Helvetica,sans-Serif" font-size="10.00">&#45;</text>
<text text-anchor="start" x="17" y="-294.5" font-family="Helvetica,sans-Serif" font-size="10.00">String nombre</text>
<text text-anchor="start" x="8.5" y="-278.5" font-family="Helvetica,sans-Serif" font-size="10.00">&#45;</text>
<text text-anchor="start" x="17" y="-278.5" font-family="Helvetica,sans-Serif" font-size="10.00">String género</text>
<text text-anchor="start" x="8.5" y="-262.5" font-family="Helvetica,sans-Serif" font-size="10.00">&#45;</text>
<text text-anchor="start" x="17" y="-262.5" font-family="Helvetica,sans-Serif" font-size="10.00">int miembros</text>
<text text-anchor="start" x="8.5" y="-246.5" font-family="Helvetica,sans-Serif" font-size="10.00">&#45;</text>
<text text-anchor="start" x="17" y="-246.5" font-family="Helvetica,sans-Serif" font-size="10.00">String baterista</text>
<text text-anchor="start" x="8.5" y="-230.5" font-family="Helvetica,sans-Serif" font-size="10.00">&#45;</text>
<text text-anchor="start" x="17" y="-230.5" font-family="Helvetica,sans-Serif" font-size="10.00">static final String FORMATO_LISTADO</text>
<text text-anchor="start" x="7" y="-214.5" font-family="Helvetica,sans-Serif" font-size="10.00">+</text>
<text text-anchor="start" x="17" y="-214.5" font-family="Helvetica,sans-Serif" font-size="10.00">Banda()</text>
<text text-anchor="start" x="7" y="-198.5" font-family="Helvetica,sans-Serif" font-size="10.00">+</text>
<text text-anchor="start" x="17" y="-198.5" font-family="Helvetica,sans-Serif" font-size="10.00">String getNombre()</text>
<text text-anchor="start" x="7" y="-182.5" font-family="Helvetica,sans-Serif" font-size="10.00">+</text>
<text text-anchor="start" x="17" y="-182.5" font-family="Helvetica,sans-Serif" font-size="10.00">void setNombre(String texto)</text>
<text text-anchor="start" x="7" y="-166.5" font-family="Helvetica,sans-Serif" font-size="10.00">+</text>
<text text-anchor="start" x="17" y="-166.5" font-family="Helvetica,sans-Serif" font-size="10.00">String getGénero()</text>
<text text-anchor="start" x="7" y="-150.5" font-family="Helvetica,sans-Serif" font-size="10.00">+</text>
<text text-anchor="start" x="17" y="-150.5" font-family="Helvetica,sans-Serif" font-size="10.00">void setGénero(String texto)</text>
<text text-anchor="start" x="7" y="-134.5" font-family="Helvetica,sans-Serif" font-size="10.00">+</text>
<text text-anchor="start" x="17" y="-134.5" font-family="Helvetica,sans-Serif" font-size="10.00">Relevancia getRelevancia()</text>
<text text-anchor="start" x="7" y="-118.5" font-family="Helvetica,sans-Serif" font-size="10.00">+</text>
<text text-anchor="start" x="17" y="-118.5" font-family="Helvetica,sans-Serif" font-size="10.00">void setRelevancia(Relevancia valor)</text>
<text text-anchor="start" x="7" y="-102.5" font-family="Helvetica,sans-Serif" font-size="10.00">+</text>
<text text-anchor="start" x="17" y="-102.5" font-family="Helvetica,sans-Serif" font-size="10.00">int getMiembros()</text>
<text text-anchor="start" x="7" y="-86.5" font-family="Helvetica,sans-Serif" font-size="10.00">+</text>
<text text-anchor="start" x="17" y="-86.5" font-family="Helvetica,sans-Serif" font-size="10.00">void setMiembros(int valor)</text>
<text text-anchor="start" x="7" y="-70.5" font-family="Helvetica,sans-Serif" font-size="10.00">+</text>
<text text-anchor="start" x="17" y="-70.5" font-family="Helvetica,sans-Serif" font-size="10.00">String getBaterista()</text>
<text text-anchor="start" x="7" y="-54.5" font-family="Helvetica,sans-Serif" font-size="10.00">+</text>
<text text-anchor="start" x="17" y="-54.5" font-family="Helvetica,sans-Serif" font-size="10.00">void setBaterista(String texto)</text>
<text text-anchor="start" x="7" y="-38.5" font-family="Helvetica,sans-Serif" font-size="10.00">+</text>
<text text-anchor="start" x="17" y="-38.5" font-family="Helvetica,sans-Serif" font-size="10.00">String toString()</text>
<text text-anchor="start" x="7" y="-22.5" font-family="Helvetica,sans-Serif" font-size="10.00">+</text>
<text text-anchor="start" x="17" y="-22.5" font-family="Helvetica,sans-Serif" font-size="10.00">String toCSVString()</text>
<text text-anchor="start" x="7" y="-6.5" font-family="Helvetica,sans-Serif" font-size="10.00">+</text>
<text text-anchor="start" x="17" y="-6.5" font-family="Helvetica,sans-Serif" font-size="10.00">String toListadoString()</text>
<polygon fill="#666666" stroke="#666666" points="3,-306 3,-306 190,-306 190,-306 3,-306"/>
<polygon fill="#666666" stroke="#666666" points="3,-226 3,-226 15,-226 15,-226 3,-226"/>
<polygon fill="#666666" stroke="#666666" points="15,-226 15,-226 190,-226 190,-226 15,-226"/>
<polygon fill="none" stroke="#666666" points="3,0 3,-324 190,-324 190,0 3,0"/>
</a>
</g>
</g>
<!-- Node2 -->
<g id="Node000002" class="node">
<title>Node2</title>
<g id="a_Node000002"><a xlink:href="enumjcolonia_1_1daw2024_1_1rmd_1_1drumfest_1_1_relevancia.html" target="_top" xlink:title="Enumeración para categorizar la relevancia de las artistas invitadas al evento.">
<polygon fill="white" stroke="none" points="193,-472 0,-472 0,-372 193,-372 193,-472"/>
<text text-anchor="start" x="4.62" y="-458.5" font-family="Helvetica,sans-Serif" font-size="10.00">jcolonia.daw2024.rmd.drumfest.Relevancia</text>
<text text-anchor="start" x="20" y="-442.5" font-family="Helvetica,sans-Serif" font-size="10.00">+</text>
<text text-anchor="start" x="46" y="-442.5" font-family="Helvetica,sans-Serif" font-size="10.00">CABEZA_CARTEL</text>
<text text-anchor="start" x="20" y="-426.5" font-family="Helvetica,sans-Serif" font-size="10.00">+</text>
<text text-anchor="start" x="46" y="-426.5" font-family="Helvetica,sans-Serif" font-size="10.00">INVITADA</text>
<text text-anchor="start" x="20" y="-410.5" font-family="Helvetica,sans-Serif" font-size="10.00">+</text>
<text text-anchor="start" x="46" y="-410.5" font-family="Helvetica,sans-Serif" font-size="10.00">TELONERA</text>
<text text-anchor="start" x="20" y="-394.5" font-family="Helvetica,sans-Serif" font-size="10.00">+</text>
<text text-anchor="start" x="46" y="-394.5" font-family="Helvetica,sans-Serif" font-size="10.00">PRINCIPAL</text>
<text text-anchor="start" x="20" y="-378.5" font-family="Helvetica,sans-Serif" font-size="10.00">+</text>
<text text-anchor="start" x="46" y="-378.5" font-family="Helvetica,sans-Serif" font-size="10.00">static String[] getNames()</text>
<polygon fill="#666666" stroke="#666666" points="0,-454 0,-454 193,-454 193,-454 0,-454"/>
<polygon fill="#666666" stroke="#666666" points="0,-390 0,-390 44,-390 44,-390 0,-390"/>
<polygon fill="#666666" stroke="#666666" points="44,-390 44,-390 193,-390 193,-390 44,-390"/>
<polygon fill="none" stroke="#666666" points="0,-372 0,-472 193,-472 193,-372 0,-372"/>
</a>
</g>
</g>
<!-- Node2&#45;&gt;Node1 -->
<g id="edge1_Node000001_Node000002" class="edge">
<title>Node2&#45;&gt;Node1</title>
<g id="a_edge1_Node000001_Node000002"><a xlink:title=" ">
<path fill="none" stroke="#63b8ff" d="M96.5,-372.17C96.5,-361.38 96.5,-349.34 96.5,-336.65"/>
<polygon fill="none" stroke="#63b8ff" points="96.5,-336.67 92.5,-330.67 96.5,-324.67 100.5,-330.67 96.5,-336.67"/>
</a>
</g>
<text text-anchor="middle" x="120.88" y="-344.5" font-family="Helvetica,sans-Serif" font-size="10.00" fill="grey"> &#45;relevancia</text>
</g>
</g>
</svg>
