<?xml version="1.0" encoding="UTF-8" standalone="no"?>
<!DOCTYPE svg PUBLIC "-//W3C//DTD SVG 1.1//EN"
 "http://www.w3.org/Graphics/SVG/1.1/DTD/svg11.dtd">
<!-- Generated by graphviz version 11.0.0 (20240428.1522)
 -->
<!-- Title: jcolonia.daw2024.rmd.drumfest.VistaListado Pages: 1 -->
<svg width="224pt" height="388pt"
 viewBox="0.00 0.00 224.00 388.00" xmlns="http://www.w3.org/2000/svg" xmlns:xlink="http://www.w3.org/1999/xlink">

<svg id="main" version="1.1" xmlns="http://www.w3.org/2000/svg" xmlns:xlink="http://www.w3.org/1999/xlink" xml:space="preserve" onload="init(evt)">
<style type="text/css"><![CDATA[
.node, .edge {opacity: 0.7;}
.node.selected, .edge.selected {opacity: 1;}
.edge:hover path { stroke: red; }
.edge:hover polygon { stroke: red; fill: red; }
]]></style>
<script type="application/ecmascript" xlink:href="svg.min.js"/>
<svg id="graph" class="graph">
<g id="graph0" class="graph" transform="scale(1 1) rotate(0) translate(4 384)">
<title>jcolonia.daw2024.rmd.drumfest.VistaListado</title>
<!-- Node1 -->
<g id="Node000001" class="node">
<title>Node1</title>
<g id="a_Node000001"><a xlink:title="Vista del listado de un conjunto de elementos en forma de («array») de cadenas de texto.">
<polygon fill="#999999" stroke="none" points="216,-164 0,-164 0,0 216,0 216,-164"/>
<text text-anchor="start" x="12.38" y="-150.5" font-family="Helvetica,sans-Serif" font-size="10.00">jcolonia.daw2024.rmd.drumfest.VistaListado</text>
<text text-anchor="start" x="5.5" y="-134.5" font-family="Helvetica,sans-Serif" font-size="10.00">&#45;</text>
<text text-anchor="start" x="14" y="-134.5" font-family="Helvetica,sans-Serif" font-size="10.00">String nombre</text>
<text text-anchor="start" x="5.5" y="-118.5" font-family="Helvetica,sans-Serif" font-size="10.00">&#45;</text>
<text text-anchor="start" x="14" y="-118.5" font-family="Helvetica,sans-Serif" font-size="10.00">static final String CYAN</text>
<text text-anchor="start" x="5.5" y="-102.5" font-family="Helvetica,sans-Serif" font-size="10.00">&#45;</text>
<text text-anchor="start" x="14" y="-102.5" font-family="Helvetica,sans-Serif" font-size="10.00">static final String RESET</text>
<text text-anchor="start" x="5.5" y="-86.5" font-family="Helvetica,sans-Serif" font-size="10.00">&#45;</text>
<text text-anchor="start" x="14" y="-86.5" font-family="Helvetica,sans-Serif" font-size="10.00">static final String[] CABECERA_LISTADO</text>
<text text-anchor="start" x="4" y="-70.5" font-family="Helvetica,sans-Serif" font-size="10.00">+</text>
<text text-anchor="start" x="14" y="-70.5" font-family="Helvetica,sans-Serif" font-size="10.00">VistaListado(String nombre, Scanner entrada)</text>
<text text-anchor="start" x="4" y="-54.5" font-family="Helvetica,sans-Serif" font-size="10.00">+</text>
<text text-anchor="start" x="14" y="-54.5" font-family="Helvetica,sans-Serif" font-size="10.00">void mostrarTítulo()</text>
<text text-anchor="start" x="4" y="-38.5" font-family="Helvetica,sans-Serif" font-size="10.00">+</text>
<text text-anchor="start" x="14" y="-38.5" font-family="Helvetica,sans-Serif" font-size="10.00">void mostrarCabecera()</text>
<text text-anchor="start" x="4" y="-22.5" font-family="Helvetica,sans-Serif" font-size="10.00">+</text>
<text text-anchor="start" x="14" y="-22.5" font-family="Helvetica,sans-Serif" font-size="10.00">void listar(List&lt; String &gt; elemento)</text>
<text text-anchor="start" x="4" y="-6.5" font-family="Helvetica,sans-Serif" font-size="10.00">+</text>
<text text-anchor="start" x="14" y="-6.5" font-family="Helvetica,sans-Serif" font-size="10.00">void acercaDe()</text>
<polygon fill="#666666" stroke="#666666" points="0,-146 0,-146 216,-146 216,-146 0,-146"/>
<polygon fill="#666666" stroke="#666666" points="0,-82 0,-82 12,-82 12,-82 0,-82"/>
<polygon fill="#666666" stroke="#666666" points="12,-82 12,-82 216,-82 216,-82 12,-82"/>
<polygon fill="none" stroke="#666666" points="0,0 0,-164 216,-164 216,0 0,0"/>
</a>
</g>
</g>
<!-- Node2 -->
<g id="Node000002" class="node">
<title>Node2</title>
<g id="a_Node000002"><a xlink:href="classjcolonia_1_1daw2024_1_1rmd_1_1drumfest_1_1_vista_general.html" target="_top" xlink:title="Vista general para la interacción con el usuario.">
<polygon fill="white" stroke="none" points="209.5,-380 6.5,-380 6.5,-200 209.5,-200 209.5,-380"/>
<text text-anchor="start" x="11.25" y="-366.5" font-family="Helvetica,sans-Serif" font-size="10.00">jcolonia.daw2024.rmd.drumfest.VistaGeneral</text>
<text text-anchor="start" x="14.5" y="-350.5" font-family="Helvetica,sans-Serif" font-size="10.00">&#45;</text>
<text text-anchor="start" x="25.5" y="-350.5" font-family="Helvetica,sans-Serif" font-size="10.00">String nombre</text>
<text text-anchor="start" x="14.5" y="-334.5" font-family="Helvetica,sans-Serif" font-size="10.00">&#45;</text>
<text text-anchor="start" x="25.5" y="-334.5" font-family="Helvetica,sans-Serif" font-size="10.00">Scanner scEntrada</text>
<text text-anchor="start" x="14.5" y="-318.5" font-family="Helvetica,sans-Serif" font-size="10.00">&#45;</text>
<text text-anchor="start" x="25.5" y="-318.5" font-family="Helvetica,sans-Serif" font-size="10.00">static final String SI</text>
<text text-anchor="start" x="14.5" y="-302.5" font-family="Helvetica,sans-Serif" font-size="10.00">&#45;</text>
<text text-anchor="start" x="25.5" y="-302.5" font-family="Helvetica,sans-Serif" font-size="10.00">static final String NO</text>
<text text-anchor="start" x="13" y="-286.5" font-family="Helvetica,sans-Serif" font-size="10.00">+</text>
<text text-anchor="start" x="25.5" y="-286.5" font-family="Helvetica,sans-Serif" font-size="10.00">VistaGeneral(String nombre, Scanner in)</text>
<text text-anchor="start" x="13" y="-270.5" font-family="Helvetica,sans-Serif" font-size="10.00">+</text>
<text text-anchor="start" x="25.5" y="-270.5" font-family="Helvetica,sans-Serif" font-size="10.00">void mostrarTítulo()</text>
<text text-anchor="start" x="13" y="-254.5" font-family="Helvetica,sans-Serif" font-size="10.00">+</text>
<text text-anchor="start" x="25.5" y="-254.5" font-family="Helvetica,sans-Serif" font-size="10.00">Scanner getScEntrada()</text>
<text text-anchor="start" x="13" y="-238.5" font-family="Helvetica,sans-Serif" font-size="10.00">+</text>
<text text-anchor="start" x="25.5" y="-238.5" font-family="Helvetica,sans-Serif" font-size="10.00">boolean pedirConfirmación()</text>
<text text-anchor="start" x="13" y="-222.5" font-family="Helvetica,sans-Serif" font-size="10.00">+</text>
<text text-anchor="start" x="25.5" y="-222.5" font-family="Helvetica,sans-Serif" font-size="10.00">String leerTexto(String pregunta)</text>
<text text-anchor="start" x="13" y="-206.5" font-family="Helvetica,sans-Serif" font-size="10.00">+</text>
<text text-anchor="start" x="25.5" y="-206.5" font-family="Helvetica,sans-Serif" font-size="10.00">int leerNúmero(String pregunta)</text>
<polygon fill="#666666" stroke="#666666" points="6.5,-362 6.5,-362 209.5,-362 209.5,-362 6.5,-362"/>
<polygon fill="#666666" stroke="#666666" points="6.5,-298 6.5,-298 23.5,-298 23.5,-298 6.5,-298"/>
<polygon fill="#666666" stroke="#666666" points="23.5,-298 23.5,-298 209.5,-298 209.5,-298 23.5,-298"/>
<polygon fill="none" stroke="#666666" points="6.5,-200 6.5,-380 209.5,-380 209.5,-200 6.5,-200"/>
</a>
</g>
</g>
<!-- Node2&#45;&gt;Node1 -->
<g id="edge1_Node000001_Node000002" class="edge">
<title>Node2&#45;&gt;Node1</title>
<g id="a_edge1_Node000001_Node000002"><a xlink:title=" ">
<path fill="none" stroke="#63b8ff" d="M108,-188.75C108,-180.38 108,-171.97 108,-163.77"/>
<polygon fill="none" stroke="#63b8ff" points="104.5,-188.63 108,-198.63 111.5,-188.63 104.5,-188.63"/>
</a>
</g>
</g>
</g>
</svg>
</svg>

<style type='text/css'>
<![CDATA[
[data-mouse-over-selected='false'] { opacity: 0.7; }
[data-mouse-over-selected='true']  { opacity: 1.0; }
]]>
</style>
<script type="application/ecmascript"><![CDATA[
document.addEventListener('DOMContentLoaded', (event) => {
  highlightEdges();
  highlightAdjacentNodes();
});
]]></script>
</svg>
