<?xml version="1.0" encoding="UTF-8" standalone="no"?>
<!DOCTYPE svg PUBLIC "-//W3C//DTD SVG 1.1//EN"
 "http://www.w3.org/Graphics/SVG/1.1/DTD/svg11.dtd">
<!-- Generated by graphviz version 11.0.0 (20240428.1522)
 -->
<!-- Title: jcolonia.daw2024.rmd.drumfest.Banda Pages: 1 -->
<!--zoomable 480 -->

<svg id="main" version="1.1" xmlns="http://www.w3.org/2000/svg" xmlns:xlink="http://www.w3.org/1999/xlink" xml:space="preserve" onload="init(evt)">
<style type="text/css"><![CDATA[
.node, .edge {opacity: 0.7;}
.node.selected, .edge.selected {opacity: 1;}
.edge:hover path { stroke: red; }
.edge:hover polygon { stroke: red; fill: red; }
]]></style>

<defs>
  <circle id="rim" cx="0" cy="0" r="7"/>
  <circle id="rim2" cx="0" cy="0" r="3.5"/>
  <g id="zoomPlus">
    <use xlink:href="#rim" fill="#404040"><set attributeName="fill" to="#808080" begin="zoomplus.mouseover" end="zoomplus.mouseout"/></use>
    <path d="M-4,0h8M0,-4v8" fill="none" stroke="white" stroke-width="1.5" pointer-events="none"/>
  </g>
  <g id="zoomMin">
    <use xlink:href="#rim" fill="#404040"><set attributeName="fill" to="#808080" begin="zoomminus.mouseover" end="zoomminus.mouseout"/></use>
    <path d="M-4,0h8" fill="none" stroke="white" stroke-width="1.5" pointer-events="none"/>
  </g>
  <g id="arrowUp" transform="translate(30 24)">
    <use xlink:href="#rim"/>
    <path pointer-events="none" fill="none" stroke="white" stroke-width="1.5" d="M0,-3.0v7 M-2.5,-0.5L0,-3.0L2.5,-0.5"/>
  </g>
  <g id="arrowRight" transform="rotate(90) translate(36 -43)">
    <use xlink:href="#rim"/>
    <path pointer-events="none" fill="none" stroke="white" stroke-width="1.5" d="M0,-3.0v7 M-2.5,-0.5L0,-3.0L2.5,-0.5"/>
  </g>
  <g id="arrowDown" transform="rotate(180) translate(-30 -48)">
    <use xlink:href="#rim"/>
    <path pointer-events="none" fill="none" stroke="white" stroke-width="1.5" d="M0,-3.0v7 M-2.5,-0.5L0,-3.0L2.5,-0.5"/>
  </g>
  <g id="arrowLeft" transform="rotate(270) translate(-36 17)">
    <use xlink:href="#rim"/>
    <path pointer-events="none" fill="none" stroke="white" stroke-width="1.5" d="M0,-3.0v7 M-2.5,-0.5L0,-3.0L2.5,-0.5"/>
  </g>
  <g id="resetDef">
    <use xlink:href="#rim2" fill="#404040"><set attributeName="fill" to="#808080" begin="reset.mouseover" end="reset.mouseout"/></use>
  </g>
</defs>
<script type="application/ecmascript">
var viewWidth = 201;
var viewHeight = 480;
var sectionId = 'dynsection-0';
</script>
<script type="application/ecmascript" xlink:href="svg.min.js"/>
<svg id="graph" class="graph">
<g id="viewport">
<title>jcolonia.daw2024.rmd.drumfest.Banda</title>
<!-- Node1 -->
<g id="Node000001" class="node">
<title>Node1</title>
<g id="a_Node000001"><a xlink:title="Agrupación de características principales de las bandas musicales.">
<polygon fill="#999999" stroke="none" points="190,-324 3,-324 3,0 190,0 190,-324"/>
<text text-anchor="start" x="14" y="-310.5" font-family="Helvetica,sans-Serif" font-size="10.00">jcolonia.daw2024.rmd.drumfest.Banda</text>
<text text-anchor="start" x="8.5" y="-294.5" font-family="Helvetica,sans-Serif" font-size="10.00">&#45;</text>
<text text-anchor="start" x="17" y="-294.5" font-family="Helvetica,sans-Serif" font-size="10.00">String nombre</text>
<text text-anchor="start" x="8.5" y="-278.5" font-family="Helvetica,sans-Serif" font-size="10.00">&#45;</text>
<text text-anchor="start" x="17" y="-278.5" font-family="Helvetica,sans-Serif" font-size="10.00">String género</text>
<text text-anchor="start" x="8.5" y="-262.5" font-family="Helvetica,sans-Serif" font-size="10.00">&#45;</text>
<text text-anchor="start" x="17" y="-262.5" font-family="Helvetica,sans-Serif" font-size="10.00">int miembros</text>
<text text-anchor="start" x="8.5" y="-246.5" font-family="Helvetica,sans-Serif" font-size="10.00">&#45;</text>
<text text-anchor="start" x="17" y="-246.5" font-family="Helvetica,sans-Serif" font-size="10.00">String baterista</text>
<text text-anchor="start" x="8.5" y="-230.5" font-family="Helvetica,sans-Serif" font-size="10.00">&#45;</text>
<text text-anchor="start" x="17" y="-230.5" font-family="Helvetica,sans-Serif" font-size="10.00">static final String FORMATO_LISTADO</text>
<text text-anchor="start" x="7" y="-214.5" font-family="Helvetica,sans-Serif" font-size="10.00">+</text>
<text text-anchor="start" x="17" y="-214.5" font-family="Helvetica,sans-Serif" font-size="10.00">Banda()</text>
<text text-anchor="start" x="7" y="-198.5" font-family="Helvetica,sans-Serif" font-size="10.00">+</text>
<text text-anchor="start" x="17" y="-198.5" font-family="Helvetica,sans-Serif" font-size="10.00">String getNombre()</text>
<text text-anchor="start" x="7" y="-182.5" font-family="Helvetica,sans-Serif" font-size="10.00">+</text>
<text text-anchor="start" x="17" y="-182.5" font-family="Helvetica,sans-Serif" font-size="10.00">void setNombre(String texto)</text>
<text text-anchor="start" x="7" y="-166.5" font-family="Helvetica,sans-Serif" font-size="10.00">+</text>
<text text-anchor="start" x="17" y="-166.5" font-family="Helvetica,sans-Serif" font-size="10.00">String getGénero()</text>
<text text-anchor="start" x="7" y="-150.5" font-family="Helvetica,sans-Serif" font-size="10.00">+</text>
<text text-anchor="start" x="17" y="-150.5" font-family="Helvetica,sans-Serif" font-size="10.00">void setGénero(String texto)</text>
<text text-anchor="start" x="7" y="-134.5" font-family="Helvetica,sans-Serif" font-size="10.00">+</text>
<text text-anchor="start" x="17" y="-134.5" font-family="Helvetica,sans-Serif" font-size="10.00">Relevancia getRelevancia()</text>
<text text-anchor="start" x="7" y="-118.5" font-family="Helvetica,sans-Serif" font-size="10.00">+</text>
<text text-anchor="start" x="17" y="-118.5" font-family="Helvetica,sans-Serif" font-size="10.00">void setRelevancia(Relevancia valor)</text>
<text text-anchor="start" x="7" y="-102.5" font-family="Helvetica,sans-Serif" font-size="10.00">+</text>
<text text-anchor="start" x="17" y="-102.5" font-family="Helvetica,sans-Serif" font-size="10.00">int getMiembros()</text>
<text text-anchor="start" x="7" y="-86.5" font-family="Helvetica,sans-Serif" font-size="10.00">+</text>
<text text-anchor="start" x="17" y="-86.5" font-family="Helvetica,sans-Serif" font-size="10.00">void setMiembros(int valor)</text>
<text text-anchor="start" x="7" y="-70.5" font-family="Helvetica,sans-Serif" font-size="10.00">+</text>
<text text-anchor="start" x="17" y="-70.5" font-family="Helvetica,sans-Serif" font-size="10.00">String getBaterista()</text>
<text text-anchor="start" x="7" y="-54.5" font-family="Helvetica,sans-Serif" font-size="10.00">+</text>
<text text-anchor="start" x="17" y="-54.5" font-family="Helvetica,sans-Serif" font-size="10.00">void setBaterista(String texto)</text>
<text text-anchor="start" x="7" y="-38.5" font-family="Helvetica,sans-Serif" font-size="10.00">+</text>
<text text-anchor="start" x="17" y="-38.5" font-family="Helvetica,sans-Serif" font-size="10.00">String toString()</text>
<text text-anchor="start" x="7" y="-22.5" font-family="Helvetica,sans-Serif" font-size="10.00">+</text>
<text text-anchor="start" x="17" y="-22.5" font-family="Helvetica,sans-Serif" font-size="10.00">String toCSVString()</text>
<text text-anchor="start" x="7" y="-6.5" font-family="Helvetica,sans-Serif" font-size="10.00">+</text>
<text text-anchor="start" x="17" y="-6.5" font-family="Helvetica,sans-Serif" font-size="10.00">String toListadoString()</text>
<polygon fill="#666666" stroke="#666666" points="3,-306 3,-306 190,-306 190,-306 3,-306"/>
<polygon fill="#666666" stroke="#666666" points="3,-226 3,-226 15,-226 15,-226 3,-226"/>
<polygon fill="#666666" stroke="#666666" points="15,-226 15,-226 190,-226 190,-226 15,-226"/>
<polygon fill="none" stroke="#666666" points="3,0 3,-324 190,-324 190,0 3,0"/>
</a>
</g>
</g>
<!-- Node2 -->
<g id="Node000002" class="node">
<title>Node2</title>
<g id="a_Node000002"><a xlink:href="enumjcolonia_1_1daw2024_1_1rmd_1_1drumfest_1_1_relevancia.html" target="_top" xlink:title="Enumeración para categorizar la relevancia de las artistas invitadas al evento.">
<polygon fill="white" stroke="none" points="193,-472 0,-472 0,-372 193,-372 193,-472"/>
<text text-anchor="start" x="4.62" y="-458.5" font-family="Helvetica,sans-Serif" font-size="10.00">jcolonia.daw2024.rmd.drumfest.Relevancia</text>
<text text-anchor="start" x="20" y="-442.5" font-family="Helvetica,sans-Serif" font-size="10.00">+</text>
<text text-anchor="start" x="46" y="-442.5" font-family="Helvetica,sans-Serif" font-size="10.00">CABEZA_CARTEL</text>
<text text-anchor="start" x="20" y="-426.5" font-family="Helvetica,sans-Serif" font-size="10.00">+</text>
<text text-anchor="start" x="46" y="-426.5" font-family="Helvetica,sans-Serif" font-size="10.00">INVITADA</text>
<text text-anchor="start" x="20" y="-410.5" font-family="Helvetica,sans-Serif" font-size="10.00">+</text>
<text text-anchor="start" x="46" y="-410.5" font-family="Helvetica,sans-Serif" font-size="10.00">TELONERA</text>
<text text-anchor="start" x="20" y="-394.5" font-family="Helvetica,sans-Serif" font-size="10.00">+</text>
<text text-anchor="start" x="46" y="-394.5" font-family="Helvetica,sans-Serif" font-size="10.00">PRINCIPAL</text>
<text text-anchor="start" x="20" y="-378.5" font-family="Helvetica,sans-Serif" font-size="10.00">+</text>
<text text-anchor="start" x="46" y="-378.5" font-family="Helvetica,sans-Serif" font-size="10.00">static String[] getNames()</text>
<polygon fill="#666666" stroke="#666666" points="0,-454 0,-454 193,-454 193,-454 0,-454"/>
<polygon fill="#666666" stroke="#666666" points="0,-390 0,-390 44,-390 44,-390 0,-390"/>
<polygon fill="#666666" stroke="#666666" points="44,-390 44,-390 193,-390 193,-390 44,-390"/>
<polygon fill="none" stroke="#666666" points="0,-372 0,-472 193,-472 193,-372 0,-372"/>
</a>
</g>
</g>
<!-- Node2&#45;&gt;Node1 -->
<g id="edge1_Node000001_Node000002" class="edge">
<title>Node2&#45;&gt;Node1</title>
<g id="a_edge1_Node000001_Node000002"><a xlink:title=" ">
<path fill="none" stroke="#63b8ff" d="M96.5,-372.17C96.5,-361.38 96.5,-349.34 96.5,-336.65"/>
<polygon fill="none" stroke="#63b8ff" points="96.5,-336.67 92.5,-330.67 96.5,-324.67 100.5,-330.67 96.5,-336.67"/>
</a>
</g>
<text text-anchor="middle" x="120.88" y="-344.5" font-family="Helvetica,sans-Serif" font-size="10.00" fill="grey"> &#45;relevancia</text>
</g>
</g>
</svg>

<g id="navigator" transform="translate(0 0)" fill="#404254">
  <rect fill="#f2f5e9" fill-opacity="0.5" stroke="#606060" stroke-width=".5" x="0" y="0" width="60" height="60"/>
  <use id="zoomplus" xlink:href="#zoomPlus" x="17" y="9" onmousedown="handleZoom(evt,'in')"/>
  <use id="zoomminus" xlink:href="#zoomMin" x="42" y="9" onmousedown="handleZoom(evt,'out')"/>
  <use id="reset" xlink:href="#resetDef" x="30" y="36" onmousedown="handleReset()"/>
   <use id="arrowup" xlink:href="#arrowUp" x="0" y="0" onmousedown="handlePan(0,-1)"/>
  <use id="arrowright" xlink:href="#arrowRight" x="0" y="0" onmousedown="handlePan(1,0)"/>
  <use id="arrowdown" xlink:href="#arrowDown" x="0" y="0" onmousedown="handlePan(0,1)"/>
  <use id="arrowleft" xlink:href="#arrowLeft" x="0" y="0" onmousedown="handlePan(-1,0)"/>
</g>
<svg viewBox="0 0 15 15" width="100%" height="30px" preserveAspectRatio="xMaxYMin meet">
 <g id="arrow_out" transform="scale(0.3 0.3)">
  <a xlink:href="classjcolonia_1_1daw2024_1_1rmd_1_1drumfest_1_1_banda__coll__graph_org.svg" target="_base">
   <rect id="button" ry="5" rx="5" y="6" x="6" height="38" width="38"
        fill="#f2f5e9" fill-opacity="0.5" stroke="#606060" stroke-width="1.0"/>
   <path id="arrow"
     d="M 11.500037,31.436501 C 11.940474,20.09759 22.043105,11.32322 32.158766,21.979434 L 37.068811,17.246167 C 37.068811,17.246167 37.088388,32 37.088388,32 L 22.160133,31.978069 C 22.160133,31.978069 26.997745,27.140456 26.997745,27.140456 C 18.528582,18.264221 13.291696,25.230495 11.500037,31.436501 z"
     style="fill:#404040;"/>
  </a>
 </g>
</svg>

<style type='text/css'>
<![CDATA[
[data-mouse-over-selected='false'] { opacity: 0.7; }
[data-mouse-over-selected='true']  { opacity: 1.0; }
]]>
</style>
<script type="application/ecmascript"><![CDATA[
document.addEventListener('DOMContentLoaded', (event) => {
  highlightEdges();
  highlightAdjacentNodes();
});
]]></script>
</svg>
