<?xml version="1.0" encoding="UTF-8" standalone="no"?>
<!DOCTYPE svg PUBLIC "-//W3C//DTD SVG 1.1//EN"
 "http://www.w3.org/Graphics/SVG/1.1/DTD/svg11.dtd">
<!-- Generated by graphviz version 11.0.0 (20240428.1522)
 -->
<!-- Title: Gráfico de jerarquía de clases Pages: 1 -->
<svg width="493pt" height="142pt"
 viewBox="0.00 0.00 493.00 142.00" xmlns="http://www.w3.org/2000/svg" xmlns:xlink="http://www.w3.org/1999/xlink">
<g id="graph0" class="graph" transform="scale(1 1) rotate(0) translate(4 138)">
<title>Gráfico de jerarquía de clases</title>
<!-- Node0 -->
<g id="Node000000" class="node">
<title>Node0</title>
<g id="a_Node000000"><a xlink:href="classjcolonia_1_1daw2024_1_1rmd_1_1drumfest_1_1_vista_general.html" target="_top" xlink:title="Vista general para la interacción con el usuario.">
<polygon fill="white" stroke="#666666" points="209.5,-77 0,-77 0,-57 209.5,-57 209.5,-77"/>
<text text-anchor="middle" x="104.75" y="-63.5" font-family="Helvetica,sans-Serif" font-size="10.00">jcolonia.daw2024.rmd.drumfest.VistaGeneral</text>
</a>
</g>
</g>
<!-- Node1 -->
<g id="Node000001" class="node">
<title>Node1</title>
<g id="a_Node000001"><a xlink:href="classjcolonia_1_1daw2024_1_1rmd_1_1drumfest_1_1_vista_alta_relevancia.html" target="_top" xlink:title="Vista para el registro de la relevancia de los artistas dentro del festival, empleando valores obteni...">
<polygon fill="white" stroke="#666666" points="485,-134 245.5,-134 245.5,-114 485,-114 485,-134"/>
<text text-anchor="middle" x="365.25" y="-120.5" font-family="Helvetica,sans-Serif" font-size="10.00">jcolonia.daw2024.rmd.drumfest.VistaAltaRelevancia</text>
</a>
</g>
</g>
<!-- Node0&#45;&gt;Node1 -->
<g id="edge1_Node000000_Node000001" class="edge">
<title>Node0&#45;&gt;Node1</title>
<g id="a_edge1_Node000000_Node000001"><a xlink:title=" ">
<path fill="none" stroke="#63b8ff" d="M150.99,-80.62C178.21,-88.48 213.64,-98.14 245.5,-105 260.09,-108.14 275.8,-111.01 290.86,-113.51"/>
<polygon fill="#63b8ff" stroke="#63b8ff" points="152.28,-77.35 141.7,-77.91 150.32,-84.07 152.28,-77.35"/>
</a>
</g>
</g>
<!-- Node2 -->
<g id="Node000002" class="node">
<title>Node2</title>
<g id="a_Node000002"><a xlink:href="classjcolonia_1_1daw2024_1_1rmd_1_1drumfest_1_1_vista_altas_bandas.html" target="_top" xlink:title="Vista para la introducción de bandas musicales.">
<polygon fill="white" stroke="#666666" points="480.88,-96 249.62,-96 249.62,-76 480.88,-76 480.88,-96"/>
<text text-anchor="middle" x="365.25" y="-82.5" font-family="Helvetica,sans-Serif" font-size="10.00">jcolonia.daw2024.rmd.drumfest.VistaAltasBandas</text>
</a>
</g>
</g>
<!-- Node0&#45;&gt;Node2 -->
<g id="edge2_Node000000_Node000002" class="edge">
<title>Node0&#45;&gt;Node2</title>
<g id="a_edge2_Node000000_Node000002"><a xlink:title=" ">
<path fill="none" stroke="#63b8ff" d="M221.16,-75.48C230.55,-76.17 240.04,-76.87 249.43,-77.56"/>
<polygon fill="#63b8ff" stroke="#63b8ff" points="221.51,-72 211.28,-74.76 221,-78.98 221.51,-72"/>
</a>
</g>
</g>
<!-- Node3 -->
<g id="Node000003" class="node">
<title>Node3</title>
<g id="a_Node000003"><a xlink:href="classjcolonia_1_1daw2024_1_1rmd_1_1drumfest_1_1_vista_listado.html" target="_top" xlink:title="Vista del listado de un conjunto de elementos en forma de («array») de cadenas de texto.">
<polygon fill="white" stroke="#666666" points="468.88,-58 261.62,-58 261.62,-38 468.88,-38 468.88,-58"/>
<text text-anchor="middle" x="365.25" y="-44.5" font-family="Helvetica,sans-Serif" font-size="10.00">jcolonia.daw2024.rmd.drumfest.VistaListado</text>
</a>
</g>
</g>
<!-- Node0&#45;&gt;Node3 -->
<g id="edge3_Node000000_Node000003" class="edge">
<title>Node0&#45;&gt;Node3</title>
<g id="a_edge3_Node000000_Node000003"><a xlink:title=" ">
<path fill="none" stroke="#63b8ff" d="M220.99,-58.53C234.41,-57.54 248.04,-56.54 261.28,-55.57"/>
<polygon fill="#63b8ff" stroke="#63b8ff" points="221,-55.02 211.28,-59.24 221.51,-62 221,-55.02"/>
</a>
</g>
</g>
<!-- Node4 -->
<g id="Node000004" class="node">
<title>Node4</title>
<g id="a_Node000004"><a xlink:href="classjcolonia_1_1daw2024_1_1rmd_1_1drumfest_1_1_vista_men_xC3_xBA.html" target="_top" xlink:title="Vista del menú para la interacción con el usuario.">
<polygon fill="white" stroke="#666666" points="465.12,-20 265.38,-20 265.38,0 465.12,0 465.12,-20"/>
<text text-anchor="middle" x="365.25" y="-6.5" font-family="Helvetica,sans-Serif" font-size="10.00">jcolonia.daw2024.rmd.drumfest.VistaMenú</text>
</a>
</g>
</g>
<!-- Node0&#45;&gt;Node4 -->
<g id="edge4_Node000000_Node000004" class="edge">
<title>Node0&#45;&gt;Node4</title>
<g id="a_edge4_Node000000_Node000004"><a xlink:title=" ">
<path fill="none" stroke="#63b8ff" d="M150.99,-53.38C178.21,-45.52 213.64,-35.86 245.5,-29 260.09,-25.86 275.8,-22.99 290.86,-20.49"/>
<polygon fill="#63b8ff" stroke="#63b8ff" points="150.32,-49.93 141.7,-56.09 152.28,-56.65 150.32,-49.93"/>
</a>
</g>
</g>
</g>
</svg>
